<svg xmlns="http://www.w3.org/2000/svg" width="492" height="412" xmlns:v="https://vecta.io/nano"><g fill="#c61316"><path d="M186.438-.437l2.947-.061C199.462-.491 206.441 2.406 214 9c1.466.795 2.947 1.565 4.438 2.313 8.797 4.702 13.896 12.902 16.756 22.222l.744 2.528.795 2.655c1.787 6.149 3.12 12.299 4.268 18.595 2.642 14.097 8.272 25.619 15.664 37.797 6.171 10.183 6.171 10.183 7.903 15.697 1.841 5.667 4.664 9.107 8.87 13.257 4.395 4.395 7.636 8.438 10.563 13.938l1.938 2.375c1.702 2.166 2.858 4.027 4.125 6.438 6.654 12.212 15.147 23.311 24.486 33.577 1.395 1.548 2.743 3.128 4.092 4.716 13.25 14.698 32.257 15.865 50.969 17.141 8.756.201 18.346-.64 26.703-3.301 4.7-1.205 9.045-1.245 13.875-1.195l2.908.021c37.361.527 37.361.527 50.905 13.229l1.729 1.561c11.23 10.198 18.388 19.814 22.666 34.572.543 1.9.543 1.9 1.606 3.588 2.222 5.067 1.745 11.06 1.937 16.529l.077 2.09c.548 16.944-2.766 32.602-8.112 48.641-1.423 4.761-2.244 9.623-3.094 14.512-.882 3.825-2.203 6.933-3.809 10.508-1.321 4.022-2.036 7.999-2.359 12.215-.521 4.84-1.891 9-3.766 13.473l-.935 2.261c-2.424 5.543-4.919 8.575-9.94 12.052l-1.375 2.438c-2.204 3.476-5.138 5.424-8.422 7.855-2.393 1.76-2.393 1.76-4.828 4.52-3.057 2.815-5.31 3.335-9.375 4.188l-2.271.504c-7.803 1.598-15.406 1.863-23.354 1.871l-3.812.074c-12.339.039-19.088-3.203-27.973-11.664-9.416-10.126-11.946-19.696-11.902-33.16l-.049-2.961c-.004-5.87.702-10.841 2.618-16.397.787-2.402 1.29-4.782 1.743-7.267l-1.768.32c-14.724 2.599-29.396 4.284-44.295 5.43l-2.467.196c-11.176.876-22.261 1.215-33.47 1.054l.094 2.881c.198 7.084-.348 13.12-2.312 19.912-.761 3.125-1.144 6.096-1.451 9.287-1.043 10.728-3.484 16.744-11.767 23.857-2.962 2.389-5.141 3.931-8.785 5.066-3.377 1.211-3.293 1.928-4.777 4.996-2.645 1.449-2.645 1.449-5.812 2.688l-3.145 1.262c-12.141 4.192-26.277 2.898-38.043-1.949-4.944-2.41-9.64-5.221-14.341-8.068-1.795-1.06-1.795-1.06-4.428-2.006-2.486-1.032-3.597-2.048-5.293-4.113l-1.41-1.668c-4.054-5.692-6.238-10.753-7.715-17.52-.699-4.688-.699-4.688-2.812-8.625-1.041-7.116-1.151-14.13-1.125-21.312l-.012-3.244.004-3.119.003-2.81c.12-2.335.538-4.265 1.129-6.514.129-1.428.222-2.86.281-4.293l.113-2.408.211-5.008c.293-6.189.293-6.189 1.395-7.291a69.22 69.22 0 0 0 .114-4.488v-2.892l-.016-3.147-.004-3.21-.031-10.2-.014-6.873-.042-15.133L179 260c-1.113-1.313-1.113-1.313-3.91-1.414-5.548.088-9.905 3.26-14.527 6.039l-2.736 1.582C152.262 269.471 147.08 273.031 142 277c-10.764 8.094-22.213 14.183-34.859 18.777-4.288 1.669-8.319 3.746-12.387 5.891-6.753 3.266-12.533 3.719-19.941 3.707l-3.13-.005c-7.347-.119-13.044-1.168-19.683-4.37l-5.312-1.625C35.087 295.126 25.557 286.563 18 277l-2.078-2.582C2.308 256.674-2.027 238.156.539 216.082l.711-5.145.331-2.455C2.372 203.531 3.547 200.79 7 197a84.14 84.14 0 0 0 2.375-4.75c7.182-14.757 18.205-26.849 30.563-37.469 2.196-1.896 4.347-3.837 6.5-5.781 3.656-3.261 7.447-6.267 11.34-9.238 2.188-1.734 4.232-3.559 6.285-5.449C70.647 128.38 77.877 123.258 85 118l8.688-6.437 1.996-1.466c3.755-2.792 7.067-5.71 10.316-9.097l3.41-3.375L113.063 94l1.854-1.828c2.56-2.546 4.971-5.028 7.201-7.875 2.081-2.538 4.27-4.158 6.945-6.047 6.273-4.974 7.413-8.978 8.367-16.746l.671-6.004C139.797 41.189 144.341 18.426 156 9c9.675-6.929 18.617-9.523 30.438-9.437z"/><path d="M265 150c3.844 1.566 6.16 4.021 9 7l2.563 2.563L279 162l1.902 1.762c2.47 2.636 4.207 5.409 6.098 8.488 10.478 16.581 20.167 29.342 39 36.75l3.242 1.309c25.122 9.599 51.862 7.559 78.184 5.129 9.697-.824 18.651-.229 28.262 1.313l3.299.477c7.499 1.185 13.187 2.385 18.236 8.438l1.84 2.961 2.02 3.211L463 235l1.699 2.727A291.53 291.53 0 0 1 469 245l1.188 1.906c7.96 13.813 5.763 32.503 1.883 47.258-1.497 5.365-3.19 10.55-5.191 15.746-3.936 10.483-6.449 21.174-8.879 32.09l2-1c2.076 10.692-2.65 17.531-8.301 26.094-1.388 2.048-2.799 4.035-4.316 5.989-1.527 1.909-1.527 1.909-2.211 4.499-1.636 3.376-3.461 3.81-6.922 5.105l-3.109 1.199c-5.387 1.91-10.425 3.646-16.141 4.113l-3.277.34c-9.159.557-9.159.557-13.16-1.738-2.159-2.066-3.845-4.155-5.562-6.602l-1.965-2.77c-7.91-11.824-8.168-22.873-8.598-36.73l-.131-3.937L386 327l3.352-.477c3.901-.473 3.901-.473 7.648-1.523l1-3 .228 1.725 1.085 7.838.357 2.713c.773 5.411 1.982 9.793 4.33 14.725l.875 3.125c2.158 5.514 6.947 9.237 12.125 11.875 4.572.662 8.558.564 12.875-1.125 2.666-2.352 4.245-4.855 6.125-7.875l3-3.875c8.575-11.427 11.193-23.93 10-38.125-.715-3.811-.715-3.811-2-7l-3-1-.687 2.5c-4.238 11.301-12.488 18.582-22.5 24.875-3.245 1.119-5.297-.143-8.312-1.5-4.389-3.292-6.172-6.687-6.969-12-.251-2.96-.434-5.906-.531-8.875l-2.797 1.023c-16.082 5.61-32.292 6.046-49.189 6.579-5.902.203-11.612.651-17.451 1.523-8.604 1.241-16.943.613-25.562-.125l-1 3c-7.325 7.052-22.211 5.215-31.773 5.07L274 327l-2 10h2l-.367 1.773c-.879 4.504-1.661 8.882-1.824 13.473-.535 11.523-3.556 17.944-11.452 26.313-1.823 1.935-3.518 3.972-5.232 6.003A160.31 160.31 0 0 1 252 388l-1.965 2.68c-4.649 3.554-9.032 3.011-14.723 2.883l-3.146.033c-9.223-.087-17.059-2.345-24.354-8.158l-2.293-1.754c-7.43-7.914-10.576-14.773-10.267-25.593l.012-3.439.157-11.144.052-7.786.192-18.341.347-34.829.148-11.429.069-6.99.066-3.208c.032-5.209.006-8.638-3.296-12.925v-2c-5.045-1.618-9.542-2.314-14.875-2.562-7.024-.337-7.024-.337-8.125-1.437l-1.625.438c-3.15.746-6.15.625-9.375.563-1-3-1-3-1-5l-2 1c-3.055.07-6.097-.003-9.152-.062-2.924-.076-2.924-.076-5.848 1.063-14.183 1.214-27.955-1.288-40.156-8.891-2.062-1.315-2.062-1.315-5.469-2.484-4.422-2.129-7.127-5.007-10.375-8.625l-1.75-1.918C60.925 193.116 60.925 193.116 60.813 179l.188-3-5 1-.375 1.875C55 181 55 181 53 183l1 1c.202 1.722.349 3.45.473 5.18C55.745 206.232 55.745 206.232 65 220l3.25 4.625C77.177 235.809 88.864 240.565 102 245l3.551 1.215c3.132 1.014 6.272 1.921 9.449 2.785l3.629 1.047c7.524 2.16 7.524 2.16 14.746.141l1.805-1.191c3.204-1.753 6.253-1.251 9.82-.996v4l-7.312 2.5-2.092.723C132.611 256.232 130.173 257 127 257v-2l-3 1c-12.901 1.325-26.549-2.109-38-8l-3.262-1.492C71.155 241.073 62.108 233.965 54 224l-2.625-2.875C46.216 214.337 41.421 205.682 42 197l1-2-5-1c.874-7.288 6.606-11.769 11.75-16.562C52 176 52 176 56 176l.172-2.293C57 171 57 171 59.328 169.199l2.922-1.512 2.891-1.551c2.882-1.146 4.797-1.377 7.859-1.137v4h-2c1.558 16.169 7.821 27.818 18 40l1.672 2.273C95.928 218.127 103.557 221.909 111 226l2.008 1.152c22.153 9.426 49.429 2.846 70.883-4.997 5.938-2.161 11.935-3.799 18.11-5.155l.231-1.856C203 213 203 213 204.867 211.755l2.438-1.052 2.689-1.202 2.881-1.251c6.863-3.121 12.986-6.218 18.918-10.914 5.698-4.151 11.828-7.64 17.886-11.237 4.408-2.637 8.796-5.303 13.028-8.216l1.941-1.324c1.881-2.168 1.413-3.766 1.352-6.559 2.438-2.125 2.438-2.125 5-4l1-3-3-1c-1.168-1.961-1.168-1.961-2.187-4.375l-1.043-2.398C265 153 265 153 265 150z"/></g><path d="M186.438-.437l2.947-.061C199.462-.491 206.441 2.406 214 9c1.466.795 2.947 1.565 4.438 2.313 8.797 4.702 13.896 12.902 16.756 22.222l.744 2.528.795 2.655c1.787 6.149 3.12 12.299 4.268 18.595 2.642 14.097 8.272 25.619 15.664 37.797 6.171 10.183 6.171 10.183 7.903 15.697 1.841 5.667 4.664 9.107 8.87 13.257 4.395 4.395 7.636 8.438 10.563 13.938l1.938 2.375c1.702 2.166 2.858 4.027 4.125 6.438 6.654 12.212 15.147 23.311 24.486 33.577 1.395 1.548 2.743 3.128 4.092 4.716 13.25 14.698 32.257 15.865 50.969 17.141 8.756.201 18.346-.64 26.703-3.301 4.7-1.205 9.045-1.245 13.875-1.195l2.908.021c37.361.527 37.361.527 50.905 13.229l1.729 1.561c11.23 10.198 18.388 19.814 22.666 34.572.543 1.9.543 1.9 1.606 3.588 2.222 5.067 1.745 11.06 1.937 16.529l.077 2.09c.548 16.944-2.766 32.602-8.112 48.641-1.423 4.761-2.244 9.623-3.094 14.512-.882 3.825-2.203 6.933-3.809 10.508-1.321 4.022-2.036 7.999-2.359 12.215-.521 4.84-1.891 9-3.766 13.473l-.935 2.261c-2.424 5.543-4.919 8.575-9.94 12.052l-1.375 2.438c-2.204 3.476-5.138 5.424-8.422 7.855-2.393 1.76-2.393 1.76-4.828 4.52-3.057 2.815-5.31 3.335-9.375 4.188l-2.271.504c-7.803 1.598-15.406 1.863-23.354 1.871l-3.812.074c-12.339.039-19.088-3.203-27.973-11.664-9.416-10.126-11.946-19.696-11.902-33.16l-.049-2.961c-.004-5.87.702-10.841 2.618-16.397.787-2.402 1.29-4.782 1.743-7.267l-1.768.32c-14.724 2.599-29.396 4.284-44.295 5.43l-2.467.196c-11.176.876-22.261 1.215-33.47 1.054l.094 2.881c.198 7.084-.348 13.12-2.312 19.912-.761 3.125-1.144 6.096-1.451 9.287-1.043 10.728-3.484 16.744-11.767 23.857-2.962 2.389-5.141 3.931-8.785 5.066-3.377 1.211-3.293 1.928-4.777 4.996-2.645 1.449-2.645 1.449-5.812 2.688l-3.145 1.262c-12.141 4.192-26.277 2.898-38.043-1.949-4.944-2.41-9.64-5.221-14.341-8.068-1.795-1.06-1.795-1.06-4.428-2.006-2.486-1.032-3.597-2.048-5.293-4.113l-1.41-1.668c-4.054-5.692-6.238-10.753-7.715-17.52-.699-4.688-.699-4.688-2.812-8.625-1.041-7.116-1.151-14.13-1.125-21.312l-.012-3.244.004-3.119.003-2.81c.12-2.335.538-4.265 1.129-6.514.129-1.428.222-2.86.281-4.293l.113-2.408.211-5.008c.293-6.189.293-6.189 1.395-7.291a69.22 69.22 0 0 0 .114-4.488v-2.892l-.016-3.147-.004-3.21-.031-10.2-.014-6.873-.042-15.133L179 260c-1.113-1.313-1.113-1.313-3.91-1.414-5.548.088-9.905 3.26-14.527 6.039l-2.736 1.582C152.262 269.471 147.08 273.031 142 277c-10.764 8.094-22.213 14.183-34.859 18.777-4.288 1.669-8.319 3.746-12.387 5.891-6.753 3.266-12.533 3.719-19.941 3.707l-3.13-.005c-7.347-.119-13.044-1.168-19.683-4.37l-5.312-1.625C35.087 295.126 25.557 286.563 18 277l-2.078-2.582C2.308 256.674-2.027 238.156.539 216.082l.711-5.145.331-2.455C2.372 203.531 3.547 200.79 7 197a84.14 84.14 0 0 0 2.375-4.75c7.182-14.757 18.205-26.849 30.563-37.469 2.196-1.896 4.347-3.837 6.5-5.781 3.656-3.261 7.447-6.267 11.34-9.238 2.188-1.734 4.232-3.559 6.285-5.449C70.647 128.38 77.877 123.258 85 118l8.688-6.437 1.996-1.466c3.755-2.792 7.067-5.71 10.316-9.097l3.41-3.375L113.063 94l1.854-1.828c2.56-2.546 4.971-5.028 7.201-7.875 2.081-2.538 4.27-4.158 6.945-6.047 6.273-4.974 7.413-8.978 8.367-16.746l.671-6.004C139.797 41.189 144.341 18.426 156 9c9.675-6.929 18.617-9.523 30.438-9.437zM161 31c-1.623 2.759-2.408 5.325-3 8.457l-.496 2.599-.504 2.756-.537 2.85a227.62 227.62 0 0 0-2.4 16.212c-1.022 8.354-3.347 16.77-7.168 24.305-1.225 2.494-1.579 4.999-2.039 7.723-2.474 6.067-9.468 9.932-14.605 13.66l-2.525 1.846L100 131.02c-4.946 3.34-9.067 6.884-13.191 11.199-2.362 2.326-5.029 3.99-7.809 5.781l-5 5c-4.686 4.502-9.472 8.411-14.937 11.938-18.32 11.943-34.802 30.093-39.692 51.871C17.99 224.974 17.56 234.378 21 242l1.25 5.563c4.085 16.443 12.647 23.965 26.375 32.813l2.46 1.59c9.15 5.723 18.144 7.512 28.915 6.035 13.395-3.127 25.912-10.761 37.438-18 5.366-3.367 10.851-6.227 16.54-8.991 4.569-2.234 8.961-4.668 13.335-7.259 5.729-3.332 11.381-5.759 17.688-7.75l2.848-1.086c3.653-1.059 6.79-1.18 10.59-1.164l3.809-.016c3.882.275 7.109.907 10.754 2.266 1.375 2.813 1.375 2.813 2 6l.534 2.398c.456 2.549.57 4.834.539 7.419l-.026 2.854-.044 3.095-.069 6.747-.042 3.607-.146 18.951-.219 24.096-.152 19.488-.084 7.408c-.827 16.614-.827 16.614 5.955 31.17L203 381l2.52 2.684 2.293 1.754 2.27 1.809c8.297 4.987 15.605 6.418 25.23 6.316l3.205.072c6.175.033 6.175.033 11.447-2.885L252 388l2.141-2.254 4.445-4.992a107.76 107.76 0 0 1 4.891-5.227c8.161-9.025 8.456-19.212 9.277-30.947.246-2.581.694-5.049 1.246-7.58h-2l2-10 3.227.07c16.033.841 16.033.841 30.664-4.023L310 321v-2l3.375.289c8.97.684 17.181.583 26.113-.75 5.566-.751 11.154-.862 16.762-1.039 17.023-.596 32.657-1.611 48.75-7.5l.043 2.344c.324 7.071 1.153 12.274 5.957 17.656 3.086 2.497 3.086 2.497 6.875 2.938 10.13-4.469 19.263-11.811 24.125-21.937 1.299-3.304 1.299-3.304 2-6 1.938.625 1.938.625 4 2 3.264 14.163.828 28.46-6.578 40.871C432.479 361.26 432.479 361.26 427 364c-6.178 1.046-10.321.263-15.5-3.312-8.705-6.57-9.852-16.475-11.5-26.687l-1.125-6.687L398 322l-1 3-11 2 .375 13.313.094 3.768c.596 18.912 5.015 30.404 18.531 43.92 13.671.828 25.546-1.278 38-7 2.26-2.26 2.823-4.054 4-7a111.65 111.65 0 0 1 3.039-4.66l1.758-2.658 3.68-5.406c4.484-6.881 5.338-12.13 4.523-20.275h-2l2.75-11.375.766-3.215c1.452-5.917 3.184-11.476 5.543-17.092 1.444-3.555 2.518-7.194 3.566-10.881l.641-2.243 1.213-4.322 1.283-4.474c1.773-6.716 1.554-13.504 1.238-20.398l-.137-3.414c-1.349-15.241-10.737-28.997-20.301-40.523-6.021-4.846-13.494-5.763-20.937-6.75l-2.672-.393c-8.958-1.241-17.515-1.038-26.501-.208-54.565 4.999-54.565 4.999-78.452-6.712l-3.352-1.527C308.682 200.978 300.301 192.686 292 180l-1.152-1.744c-3.589-5.449-7.056-10.972-10.493-16.518l-1.348-2.17-2.559-4.151c-1.729-2.796-3.446-5.413-5.516-7.975-2.239-2.827-3.848-5.768-5.559-8.941-3.175-5.746-6.796-10.879-10.865-16.021-4.39-5.55-7.864-11.255-11.198-17.479-2.991-5.578-6.359-10.875-9.767-16.203-2.308-3.655-4.303-7.209-5.921-11.234L226 74c-2.037-.773-2.037-.773-4-1l-1-5 2-1-1.437-1.75c-2.741-3.948-2.678-7.718-2.875-12.437-.682-9.371-4.183-15.424-9.687-22.812l-.77-2.059c-2.751-4.34-9.503-4.873-14.23-5.941-11.164-1.652-24.06 2.34-33 9z" fill="#71090c"/><path d="M265 150c3.859 1.572 6.322 3.829 9 7 .946 2.339 1.465 4.518 2 7l5 1c.199 4.274-.206 7.129-2 11l-1.25 3.375c-5.766 12.926-20.71 19.373-32.707 25.539l-7.673 4.005c-9.687 5.057-19.496 8.819-29.871 12.206l-8.844 2.945-2.18.722c-5.059 1.689-10.039 3.543-15.015 5.462-5.42 2.077-10.593 3.663-16.336 4.559-4.699.625-4.699.625-9.125 2.188-3.211.279-6.422.447-9.641.621-3.38.381-6.152 1.285-9.359 2.379-12.192 1.731-25.819-2.45-36.156-8.891-2.062-1.315-2.062-1.315-5.469-2.484-4.422-2.129-7.127-5.007-10.375-8.625l-1.75-1.918C60.925 193.116 60.925 193.116 60.813 179l.188-3-5 1-.375 1.875C55 181 55 181 53 183l1 1c.202 1.722.349 3.45.473 5.18C55.745 206.232 55.745 206.232 65 220l3.25 4.625C77.177 235.809 88.864 240.565 102 245l3.551 1.215c3.132 1.014 6.272 1.921 9.449 2.785l3.629 1.047c7.524 2.16 7.524 2.16 14.746.141l1.805-1.191c3.204-1.753 6.253-1.251 9.82-.996v4l-7.312 2.5-2.092.723C132.611 256.232 130.173 257 127 257v-2l-3 1c-12.901 1.325-26.549-2.109-38-8l-3.262-1.492C71.155 241.073 62.108 233.965 54 224l-2.625-2.875C46.216 214.337 41.421 205.682 42 197l1-2-5-1c.874-7.288 6.606-11.769 11.75-16.562C52 176 52 176 56 176l.172-2.293C57 171 57 171 59.328 169.199l2.922-1.512 2.891-1.551c2.882-1.146 4.797-1.377 7.859-1.137v4h-2c1.558 16.169 7.821 27.818 18 40l1.672 2.273C95.928 218.127 103.557 221.909 111 226l2.008 1.152c22.153 9.426 49.429 2.846 70.883-4.997 5.938-2.161 11.935-3.799 18.11-5.155l.231-1.856C203 213 203 213 204.867 211.755l2.438-1.052 2.689-1.202 2.881-1.251c6.863-3.121 12.986-6.218 18.918-10.914 5.698-4.151 11.828-7.64 17.886-11.237 4.408-2.637 8.796-5.303 13.028-8.216l1.941-1.324c1.881-2.168 1.413-3.766 1.352-6.559 2.438-2.125 2.438-2.125 5-4l1-3-3-1c-1.168-1.961-1.168-1.961-2.187-4.375l-1.043-2.398C265 153 265 153 265 150z" fill="#fda131"/><path d="M299 291l.262 2.309c.881 6.476 2.206 11.412 5.715 16.949C306 312 306 312 306 314c-5.438 1.219-10.698 1.222-16.25 1.25l-3.027.063c-6.466.034-11.744-.824-17.723-3.312l-.75 3.813c-.806 3.7-1.932 7.101-3.312 10.625-1.369 3.605-2.188 6.717-2.437 10.563-.376 5.765-2.395 10.669-4.5 16l-1.062 3.313C253.172 367.108 246.868 372.661 237 378c-5.232 1.688-10.417 1.983-15.598.012-7.729-4.139-11.302-9.855-14.543-17.812-1.029-3.832-1.153-7.451-1.109-11.387l-.023-2.154c.014-3.758.139-5.457 2.273-8.658 2.813-.5 2.813-.5 6 0 2.438 2.25 2.438 2.25 5 5 3.307 2.494 6.353 3.908 10.5 4.5 6.267-.895 10.805-4.374 15.5-8.5 1.673-2.57 1.673-2.57 2.973-5.473l1.537-3.229 1.553-3.361 1.564-3.279c2.822-5.994 5.343-12 7.493-18.267 1.697-4.612 3.444-9.028 7.884-11.512 9.931-3.61 20.6-3.002 30.996-2.879z" fill="#920028"/><path d="M298 218c2.313-.25 2.313-.25 5 0 5.217 4.83 5.584 13.269 6 20 .159 5.086.292 10.083-.475 15.124-.936 6.914-1.11 13.868-1.357 20.835l-.248 5.431c-.616 11.748-.271 19.436 6.08 29.611v2l15.161.055 5.156.021 7.417.022 2.324.016c3.505 0 6.564-.247 9.942-1.113 1.875-.02 3.751.007 5.625.063 11.514.091 23.219-1.177 34.375-4.062l2.004-.414c3.884-1.14 6.529-3.421 8.996-6.586 3.445-8.805 3.783-16.611.875-25.562l-.665-2.1c-1.908-5.829-4.338-11.27-7.073-16.763C396 252 396 252 396 249l-3-1c-1.478-2.957-1.06-5.742-1-9h11c9.643 18.289 13.657 39.531 10 60-3.965 7.297-9.746 12.121-17.625 14.625-13.764 3.404-28.265 3.534-42.36 3.977-5.902.204-11.612.652-17.452 1.523-8.604 1.241-16.943.613-25.562-.125l-1 3c-4.622 4.292-9.708 4.127-15.762 4.133l-3.889.004-2.007-.006a1055.96 1055.96 0 0 0-6.102.006l-3.877-.004-3.553-.003C271 326 271 326 269 325l-1 12h-1l-.125-8.562-.051-2.424c-.041-5.079.535-9.202 2.176-14.014l3.59.992c6.617 1.47 13.229 1.223 19.973 1.133l3.924-.027L306 314l-1.07-1.713c-4.162-7.327-4.65-13.474-4.602-21.791l-.059-5.859-.018-8.147-.111-18.057-.021-3.86c-.085-12.246-.572-24.415-2.119-36.573z" fill="#d12417"/><path d="M365 261c2.645.939 3.774 1.605 5.184 4.07 1.759 2.288 1.759 2.288 5.137 2.285l3.805-.168L386 267c1 1 1 1 1.438 3.813-.043 6.885-4.732 13.629-8.437 19.188l1.363-1.059c5.586-3.951 10.764-5.493 17.637-4.941 3.431 1.194 6.315 2.63 8 6 .585 3.659.649 6.035-1.457 9.168-2.672 3.088-5.133 5.559-8.543 7.832h-6c-1.826.423-3.64.905-5.437 1.438-9.632 2.537-19.591 2.774-29.512 2.5-2.016-.025-2.016-.025-3.742.558-3.129.684-6.103.634-9.305.637l-2.032.003a1233.83 1233.83 0 0 1-4.244-.005c-2.155-.005-4.31 0-6.465.006l-4.135-.004-3.779-.003c-2.96-.114-5.523-.253-8.35-1.129-1.553-2.269-2.676-4.226-3.812-6.687l-.943-1.857C306.16 298.136 306 296.048 306 291h15l2 7c3.642 3.79 7.739 5.776 12.875 6.688 3.234-.382 3.234-.382 4.938-2.812 2.259-5.468 3.334-9.901 4.188-15.875l16-1 2.734 6.152c1.127 2.036 1.127 2.036 3.406 2.602L369 294c.314-4.289-.335-7.137-2.133-11.023-3.081-7.023-4.237-13.338-3.867-20.977l2-1z" fill="#930128"/><path d="M444 305l4 1c4.118 12.881 2.412 25.294-3.133 37.492-3.899 7.462-10.099 17.623-17.867 21.508-6.128 1.037-10.292.286-15.437-3.25-8.662-6.507-10.367-14.752-12.09-25.02-.683-3.945-1.577-7.829-2.473-11.73h-1v-5l-7.812-.062-2.178-.025c-4.022-.018-7.95.149-11.951.564-4.88.481-9.729.666-14.629.77l-2.339.05-9.605.18c-9.312.16-18.466.559-27.699 1.84-4.654.632-9.104.763-13.787.683 1.484-2.488 1.484-2.488 4-5a44.11 44.11 0 0 1 8.25-.187c5.901.198 11.448.117 17.313-.75 6.904-.982 13.719-1.338 20.688-1.562 17.355-.609 33.232-1.894 49.75-7.5l.078 2.598c.341 6.881.617 11.902 4.922 17.402 3.087 2.476 3.087 2.476 6.875 2.938 12.87-5.678 20.3-14.458 26.125-26.937z" fill="#920028"/><path d="M198.539 209.621c1.841 1.738 2.182 2.882 2.461 5.379l-1 3c-2.661 1.211-2.661 1.211-6.203 2.375l-1.92.638-4.055 1.321-6.063 1.994c-12.224 4.034-24.087 7.117-37.008 7.547l-3.261.118c-10.957.258-22.871-.168-32.489-5.993l-1-3c12.64-7.147 26.265-11.453 40-16l3.209-1.08c15.468-5.098 33.276-4.989 47.33 3.701z" fill="#930128"/><path d="M340 235h48l2 16c-6.417.103-12.627-.255-19-1v2c5.319 1.87 10.662 3.061 16.172 4.219C390 257 390 257 392 259c1.804 6.671 2.003 14.183-.312 20.688C390 282 390 282 387 283v3c-5.257 4-5.257 4-8 4 1.647-4.324 3.731-8.267 5.977-12.305 1.27-3.344 1.189-6.148 1.023-9.695l-2.887.211c-10.187.44-10.187.44-13.016-1.547-1.105-1.504-2.108-3.081-3.098-4.664h-4c1.564 13.632 1.564 13.632 7 26-.375 3.188-.375 3.188-1 6-2.34-.195-2.34-.195-5-1-1.441-2.117-1.441-2.117-2.562-4.875l-1.234-3.035L359 282l-1.203-2.684c-3.073-7.283-3.992-14.465-2.797-22.316 1.416-2.581 2.487-3.324 5-5l2-2-17-2c-3.875-9.625-3.875-9.625-5-13z" fill="#fd9c2f"/><path d="M131 130l2.895 5.965c2.863 6.153 5.89 10.361 12.418 12.848L150 150c-7.725 8.449-17.831 12.247-28.187 16.5l-4.041 1.684L106 173l-1.889.765-5.33 2.122-3.072 1.218c-3.472 1.148-6.1 1.315-9.709.896.512-4.477 1.96-6.708 5-10 2.36-1.572 4.661-2.994 7.125-4.375l4.055-2.371 1.987-1.164c7.579-4.508 14.08-9.935 20.485-15.954C127 142 127 142 130 140c.582-2.425.582-2.425.688-5.125l.199-2.758L131 130z" fill="#fd6336"/><path d="M298 218c2.313-.25 2.313-.25 5 0 5.217 4.83 5.584 13.269 6 20 .159 5.088.29 10.085-.473 15.128-.936 6.877-1.152 13.79-1.414 20.721l-.269 5.39c-.683 11.857-.566 22.053 7.156 31.761 3.46 1.947 6.339 2.235 10.266 2.16l2.945-.033 3.039-.064 6.016-.09 2.681-.054C341 313 341 313 342 314c1.666.041 3.334.043 5 0-5.043 5.043-16.558 4.18-23.375 4.438-5.396-.06-8.745-.886-12.977-4.246-1.585-1.323-1.585-1.323-3.613-1.564C305 312 305 312 302.786 308.769c-2.639-5.823-2.37-11.79-2.36-18.078l-.065-5.872-.041-8.192-.144-18.124-.031-3.879c-.116-12.261-.596-24.452-2.145-36.625z" fill="#fd992e"/><path d="M403 234c14.023-.656 26.15.339 37.688 9.313 2.909 3.741 4.171 7.665 4.813 12.313-.5 3.375-.5 3.375-2.562 6.313-2.813 1.975-4.282 2.742-7.703 2.5-5.202-1.019-10.218-2.75-15.234-4.437l-3-1c-.957-2.441-.957-2.441-1.812-5.562-1.811-5.842-4.237-9.845-8.187-14.437l-4-5z" fill="#fd6235"/><path d="M80 245c3.429 1.055 6.605 2.29 9.813 3.875 10.204 4.61 22.068 6.645 33.188 7.125-2.777 3.248-6.391 5.122-10.062 7.188l-1.932 1.115C106.257 267 106.257 267 104 267v2l-10 4-2.68 1.098c-2.861 1.112-4.288 1.568-7.32.902-4.895-4.205-7.633-8.922-8.215-15.387-.199-5.326.261-9.006 3.215-13.613l1-1z" fill="#930128"/><path d="M392 239h11c7.133 13.528 11.356 28.903 11.375 44.25l.005 2.092c-.165 7.51-2.649 13.878-7.38 19.658-11.503 10.116-24.566 9.41-39 9l1-2c2.357-.559 2.357-.559 5.469-1.008l3.422-.555 7.125-1.055C393.273 308 398.67 305.616 404 299c1.645-3.061 1.645-3.061 2.063-6.125l.598-2.945c.694-5.986.071-10.779-1.785-16.492l-.665-2.1c-1.908-5.829-4.338-11.27-7.073-16.763C396 252 396 252 396 249l-3-1c-1.478-2.957-1.06-5.742-1-9z" fill="#fea031"/><path d="M340 235h48l2 16c-6.417.103-12.627-.255-19-1v2l4 2c-2.817-.391-4.617-.692-6.86-2.497-2.518-1.769-4.079-1.992-7.124-2.233l-2.832-.244-2.934-.213-2.98-.248L345 248l-1.937-4.812-1.09-2.707c-.709-1.808-1.359-3.639-1.973-5.48z" fill="#fd6236"/><path d="M175 70c2.621.362 3.811.816 5.727 2.688 3.757 6.823 1.388 16.896-.605 24.059-2.67 7.751-6.084 15.247-9.797 22.551-1.28 2.613-1.903 4.838-2.324 7.703h-2c-3-3.462-3-3.462-3-6l-2.125-.75c-3.245-1.411-5.978-3.229-8.875-5.25 1.459-4.377 4.89-6.924 8.156-10.09C169.847 94.945 172.545 83.312 175 70z" fill="#fc6135"/><path d="M98.418 230.68L101 232c15.144 6.858 28.617 7.299 45 7 0 2 0 2-1.338 3.376-12.65 10.381-12.65 10.381-19.345 10.921-3.624-.788-6.869-1.93-10.316-3.297l-4.004-1.184C102.749 246.457 94.842 243.49 87 240c.547-3.687 1.828-5.123 4.75-7.375l2.047-1.648C96 230 96 230 98.418 230.68z" fill="#960427"/><path d="M188.816 38.367c4.613.917 6.283 1.926 9.184 5.633 1.324 4.205 1.181 6.416-.125 10.625-2.504 4.507-4.9 7.717-9.875 9.375-3.375.438-3.375.438-7 0-2.293-1.807-3.373-3.485-5-6v-3h-3c-.56-9.517-.56-9.517 3-14l1.211-1.633c3.412-2.608 7.55-1.425 11.605-1z" fill="#fe9342"/><path d="M335 235c6.041 12.945 6.041 12.945 5 20-1.138 3.111-2.476 6.061-4 9-2.687.313-2.687.313-6 0-2.506-2.068-4.448-4.347-6.539-6.82l-1.586-1.867-1.445-1.762c-1.545-1.798-1.545-1.798-4.43-3.551-.639-3.035-.514-5.948 0-9 1.813-2.062 1.813-2.062 4-3h3l1-3c4.05-1.35 6.792-.621 11 0z" fill="#fea132"/><path d="M278 177c.75 1.563.75 1.563 1 4-2.577 6.051-6.347 9.66-12 13h-2v2l-5 1v2l-3.008 1.469-4.117 2.031-2.227 1.096c-4.484 2.235-8.717 4.669-12.96 7.342-9.795 5.724-20.786 8.612-31.541 12.037-6.471 2.108-12.801 4.57-19.147 7.025l-8 3 1.863.551 2.449.762 2.426.738c2.361.991 3.601 2.03 5.262 3.949-2.3 2.3-2.974 2.33-6.098 2.668l-2.428.268-2.537.252-2.549.287c-2.125.224-4.257.38-6.389.525l-1-1-1.625.438c-3.15.746-6.15.625-9.375.563-1-3-1-3-1-5l-2 1c-1.895.046-3.792.038-5.687 0-4.577-.044-8.815.182-13.312 1 3.456-3.456 7.402-3.159 12.125-3.437 16.26-1.208 31.485-6.486 46.57-12.409 5.8-2.259 11.638-4.269 17.567-6.16 9.872-3.153 18.813-6.594 27.749-11.852 2.304-1.323 4.644-2.568 6.993-3.81 18.52-9.097 18.52-9.097 29.996-25.332z" fill="#e64516"/><path d="M365 261c2.645.939 3.774 1.605 5.184 4.07 1.759 2.288 1.759 2.288 5.137 2.285l3.805-.168L386 267c1 1 1 1 1.438 3.813-.043 6.885-4.732 13.629-8.437 19.188l6-4 2 1c-1.625 2-1.625 2-4 4-3.25.25-3.25.25-6 0l2-7-12 1c-2.486-7.802-4.57-14.736-4-23l2-1z" fill="#cf2117"/><path d="M156 120c4.268 2.005 7.129 5.738 9 10 .563 3 .563 3 0 6-1.839 2.091-3.678 3.389-6 5h-1l-.148-2.082-.227-2.73-.211-2.707c-.281-2.724-.281-2.724-2.414-5.48-3.607-.549-5.339-.452-8.375 1.625-2.125 3.105-2.229 4.676-1.625 8.375 1.939 2.674 1.939 2.674 4 5v3c-4.436.435-6.329.54-9.875-2.312-3.966-5.016-3.784-10.526-3.125-16.687 4.471-7.824 11.707-8.088 20-7z" fill="#81130e"/><path d="M337.625 282.5C341 283 341 283 344 285c1.102 6.513.166 12.277-3 18-2 2-2 2-5.25 2.375-5.189-.519-7.944-2.629-11.625-6.187-1.608-3.126-1.386-5.733-1.125-9.187l1-1 2.25.313L329 289l2.375-3c2.625-3 2.625-3 6.25-3.5z" fill="#fd9f30"/><path d="M400 313l-4 1 1 7-3-1-7-.125-3.75-.008c-3.064.054-6.069.297-9.117.613-4.905.475-9.78.661-14.703.766l-2.338.05-9.605.18c-9.312.16-18.466.559-27.699 1.84-4.654.632-9.104.763-13.787.683 1.484-2.488 1.484-2.488 4-5a44.11 44.11 0 0 1 8.25-.187c5.901.198 11.448.117 17.313-.75 6.904-.982 13.719-1.339 20.688-1.562 7.985-.266 15.922-.658 23.875-1.437l2.419-.227c3.571-.374 6.915-.894 10.358-1.926 3.004-.883 4.248-1.05 7.098.09z" fill="#c41216"/><path d="M412 296l1 3c-4.081 7.079-9.514 12.033-17.297 14.555-8.538 2.268-17.39 2.035-26.167 2.154l-9.169.17-5.836.105-2.765.053-2.561.032-2.248.033c-2.825-.148-5.283-1.211-7.957-2.102a72.83 72.83 0 0 0-4.492-.027l-2.637.037-5.469.117c-4.585.058-8.245.091-12.402-2.127 3.697-1.175 7.172-1.098 11.031-1.062l2.039.011 8.603.072 6.295.042 3.795.035c2.667-.08 4.706-.367 7.236-1.098 1.875-.02 3.751.007 5.625.063 10.287.081 20.871-.828 30.875-3.312l3.5-.75 2 2-26 5c19.383.926 19.383.926 36-8h2l.813-1.687c1.289-2.51 2.717-4.906 4.188-7.312z" fill="#fe992b"/><path d="M111 269l-1.937 2.313c-2.205 2.57-2.205 2.57-3.062 5.688-1.611 1.059-1.611 1.059-3.676 2.008l-2.26 1.051-2.377 1.066-2.342 1.09C91.915 283.79 88.695 285.172 85 286v-2l-3.312.188C78 284 78 284 76.063 282.625 75 281 75 281 75 279c3.046-2.03 3.913-2.243 7.375-2.437 3.998-.373 6.284-1.25 9.625-3.562 5.901-3.384 12.136-6.471 19-4z" fill="#c91816"/><path d="M73 165c-3.54 2.916-7.163 5.501-11 8l1 2c-.168 2.696-.612 5.324-1 8h-1v-7l-5 1-.375 1.875C55 181 55 181 53 183l1 1c.227 1.631.395 3.27.535 4.91l.264 2.998.264 3.154.275 3.166L56 206c-3.42-3.42-3.241-7.053-3.562-11.687l-.254-3.574L52 188c-3.448 2.664-3.448 2.664-6.5 5.75-2.136 1.78-3.81 1.468-6.5 1.25-.758-2.184-.758-2.184-1-5 1.695-2.535 1.695-2.535 4.125-5.062l2.383-2.535C51.15 176 51.15 176 56 176l.172-2.293C57 171 57 171 59.328 169.199l2.922-1.512 2.891-1.551c2.882-1.146 4.797-1.377 7.859-1.137z" fill="#fa742a"/><path d="M393 305c-10.467 6.978-25.827 6.272-37.949 5.938-2.015-.026-2.015-.026-3.731.56-3.191.691-6.228.613-9.492.6l-2.068-.004-6.51-.031-4.426-.014L318 312v-2c3.555-.803 6.882-1.144 10.523-1.211l3.299-.08 3.552-.084c12.096-.344 24.031-1.299 36.054-2.609 7.228-.772 14.301-1.21 21.571-1.016z" fill="#c21118"/><path d="M152.125 126.438c2.875.563 2.875.563 4.75 2.125 1.568 3.397 1.58 5.734 1.125 9.438-1.937 2.813-1.937 2.813-4 5l-1 2c-3.344-.248-4.286-1.279-6.75-3.687-1.778-2.308-2.272-3.419-2.875-6.375 1.073-5.044 3.684-7.588 8.75-8.5z" fill="#feaa36"/><path d="M180 41l2 2-3 5h2v6l3.875.438c2.382.269 3.97.485 6.125 1.563-1.39 3.358-2.825 5.186-6 7-2.5.5-2.5.5-5 0-2.312-2.312-2.312-2.312-4-5v-3h-3v-9l2 3 1.938-3.437c1.938-3.437 1.938-3.437 3.063-4.562zm12 12h2v2l-3-1 1-1z" fill="#fe9044"/><path d="M111 135c.355 2.199.355 2.199 0 5-1.887 1.893-3.535 3.296-5.687 4.813l-3.199 2.395c-3.136 1.806-4.585 2.232-8.113 1.793l-1-5c12.014-10.881 12.014-10.881 18-9z" fill="#fb7e33"/><path d="M395 307v1c-10.152 2.151-20.245 4.228-30.625 4.813l-2.131.123c-3.081.132-5.29.05-8.244-.935-2.017.426-4.017.936-6 1.5-5.667 1.611-5.667 1.611-9 .5a72.83 72.83 0 0 0-4.492-.027l-2.637.037-5.469.117c-4.585.058-8.245.091-12.402-2.127 3.697-1.175 7.172-1.098 11.031-1.062l2.039.011 8.603.072 6.295.042 3.795.035c2.667-.08 4.706-.367 7.236-1.098 1.875-.02 3.751.007 5.625.063 5.666.045 11.188-.326 16.813-.937l2.293-.238L395 307z" fill="#eb5016"/><path d="M301.063 215.938L304 216c7.981 11.576 7.895 27.017 5.582 40.371-1.01 6.792-1.011 13.712-1.207 20.566l-.061 2.099L308 291h-1l-.055-14.142-.021-4.804-.022-6.933-.016-2.144c0-4.417.42-8.619 1.113-12.977.565-9.599 1.009-22.987-5-31-2.584-.969-2.584-.969-5-1l1 3.75c1.302 5.748 1.179 11.387 1 17.25h-1c-1.406-7.305-2.673-14.538-2-22 1-1 1-1 4.063-1.062z" fill="#ef5018"/><path d="M451 235c3.902.272 5.678.723 8.688 3.313L462 241l1.813 1.813c1.842 3.392 1.379 6.365 1.188 10.188h-6l-1.187-3.125c-1.166-2.781-2.465-4.78-4.5-7C451 240 451 240 450.688 237.125L451 235z" fill="#fc8234"/><path d="M247 121h3l2 5h2c4.477 5.119 5.83 10.334 6 17-2.86 0-4.525-.545-6.598-2.531C248.519 134.422 247 128.688 247 121z" fill="#fd8536"/><path d="M174 234l-4 2 2 1-1 3-5 1v2h-7c-1-3-1-3-1-5l-2 1h-5.687c-4.577-.044-8.815.182-13.312 1 3.456-3.456 7.402-3.159 12.125-3.437 6.493-.46 12.735-1.42 19.012-3.152 2.247-.495 3.697-.107 5.863.59z" fill="#e34117"/><path d="M34 196c3.188-.312 3.188-.312 6 0l-1 7-3 1c-.769 2.074-.769 2.074-1.125 4.5-.798 4.423-.798 4.423-1.875 5.5h-6c.583-4.783 1.943-8.649 4-13l1.313-2.937L34 196z" fill="#fc8336"/><path d="M145 248v4l-7.312 2.5-2.092.723C132.611 256.232 130.173 257 127 257v-2l-3 1c-6.038.296-12.077.316-18-1v-1l3.402.141c8.437.243 15.155.321 22.598-4.141 4.533-2.211 8.023-2.169 13-2z" fill="#fc8637"/><path d="M416.375 372.813l3.523-.043C423 373 423 373 426 375l-1 5c-5.152.09-9.919-.153-15-1-.382-1.656-.714-3.325-1-5 1.864-1.864 4.882-1.174 7.375-1.187z" fill="#fd8537"/><path d="M277.063 320.813l3.16.02C283 321 283 321 286 322l-1 4-6.875.063-3.867.035C271 326 271 326 269 325l-1 12h-1v-14c4.044-2.022 5.691-2.247 10.063-2.187z" fill="#fd7c31"/><path d="M26 240h5c2.254 5.561 2.6 11.079 3 17h-5c-2.293-5.897-3.345-10.666-3-17z" fill="#fe8a39"/><path d="M232 97c3.491 1.164 3.852 1.89 5.688 4.938l1.324 2.152C240 106 240 106 240 108l4 2v6c-2.875-.312-2.875-.312-6-1-2-3-2-3-2-7h-2c-1.423-3.823-2.24-6.913-2-11z" fill="#fd8737"/><path d="M335 235c6.041 12.945 6.041 12.945 5 20-1.138 3.111-2.476 6.061-4 9h-6v-1h5c2.066-7.803 3.723-15.064 0-22.562L333 237h-8l-1 3-5 1-.437 3.313C318 248 318 248 317 251c-1.579-1.579-1.245-3.194-1.312-5.375.041-4.316.041-4.316 2.125-6.687C320 238 320 238 323 238l1-3c4.05-1.35 6.792-.621 11 0z" fill="#f35819"/><path d="M91 149c-.085 2.874-.545 4.543-2.59 6.598l-3.816 3.07c-1.725 1.261-1.725 1.261-2.594 3.332h-5c-.625-3.125-.625-3.125 0-7 4.277-3.692 8.32-6 14-6z" fill="#fd8d3a"/><path d="M186 44.75c3 .25 3 .25 5 2.25.345 4.053.302 5.548-2 9-3.723.477-4.792.139-8-2-.312-3.5-.312-3.5 0-7 2-2 2-2 5-2.25z" fill="#d42516"/><path d="M392 239h11v3l-4-1 7 12c-3 1-3 1-5.5.125-3.602-3.061-4.345-6.648-5.5-11.125v7c-1.5-1.062-1.5-1.062-3-3-.187-3.687-.187-3.687 0-7z" fill="#fa672e"/><path d="M302.125 318.938l3.883.027L309 319c0 3 0 3-1.578 4.676-3.205 1.753-5.542 1.621-9.172 1.512l-3.547-.082L292 325l1-5c3.003-1.502 5.791-1.093 9.125-1.062z" fill="#fb8334"/><path d="M281 175c5.955 2.552 10.493 7.834 13.25 13.625C295 191 295 191 295 194h-3c-1.465-1.645-1.465-1.645-2.937-3.812-1.622-2.375-2.838-4.03-5.207-5.687-1.855-1.5-1.855-1.5-2.465-3.543L281 175z" fill="#fd8535"/><path d="M127 122v4l-6 4-2 3c-3.125.188-3.125.188-6 0-.437-2.187-.437-2.187 0-5 4.064-4.041 8.279-6 14-6z" fill="#fc8536"/><path d="M255 364h4l.188 4.813.105 2.707C259 374 259 374 257.656 375.844 256 377 256 377 253.313 376.688L251 376c-.37-6.534-.37-6.534 1.438-8.812L254 366l1-2z" fill="#ff9340"/><path d="M197 44c2 2 2 2 2.152 3.918-.551 5.824-1.948 9.902-6.152 14.082-3.908 2.365-7.505 2.176-12 2 2.049-1.025 4.059-2.024 6.188-2.875L189 60l.375-1.937L190 56l3-1.187c3.166-1.446 3.166-1.446 3.617-4 .235-2.282.373-4.519.383-6.812z" fill="#fa7a31"/><path d="M265 150c4.704 1.916 8.044 5.089 10.313 9.625C276 162 276 162 276 165l-4 1v-3l-3-1c-1.168-1.961-1.168-1.961-2.187-4.375l-1.043-2.398C265 153 265 153 265 150z" fill="#fc8334"/><path d="M202 303c2.789 2.789 3.152 5.206 3.188 9l.043 2.063C205 316 205 316 203 319h-3c-1.29-2.58-1.204-4.557-1.25-7.437l-.078-2.934C199 306 199 306 200.516 304.152L202 303z" fill="#fe8938"/><path d="M75 187c2.294 2.105 3.637 4.027 5 6.813 5.257 9.688 12.472 19.432 22 25.188l3 1.875 2 1.125-1 2c-13.049-7.366-25.16-19.874-31-34v-3z" fill="#f05217"/><path d="M202 325l2 1c.892 2.676 1.135 4.254 1.125 7l.008 2.063C205 337 205 337 204 340h-4c-1.297-2.595-1.204-4.604-1.25-7.5l-.078-2.969L199 327l3-2z" fill="#fe8b39"/><path d="M219 76c3.766 1.681 5.138 3.276 7 7v2h2l1 7c-3.227-.239-4.268-1.25-6.687-3.5-3.016-3.793-3.197-7.789-3.312-12.5z" fill="#fc8636"/><path d="M163 47h5c-.511 6.437-1.729 11.959-4 18h-3l2-18z" fill="#fa782e"/><path d="M328 242l4 1v12l-2 1c-2.964-2.808-5.445-5.183-7-9l4-1 1-4z" fill="#fd6a1e"/><path d="M203 39c2.25-.375 2.25-.375 5 0 2.552 2.966 3.908 4.944 4.25 8.875L212 50c-2.25.313-2.25.313-5 0-2.995-2.753-3.942-4.227-4.25-8.312L203 39z" fill="#fa7b30"/><path d="M319 213c6.637 1.642 11.796 3.475 17 8v3c-4.847-.782-9.377-2.398-14-4v-4l-3-1v-2z" fill="#fe8638"/><path d="M440 372l1 4c-4.186 3.189-6.706 4.504-12 4 .322-2.975.621-4.593 2.688-6.812 2.913-1.496 5.082-1.408 8.313-1.187z" fill="#fd8637"/><path d="M447 353h4c-.632 5.053-2.135 9.296-4 14h-4c-.499-6.118.751-9.025 4-14z" fill="#fe913d"/><path d="M181.313 234.688c5.295.021 5.295.021 8.375 2.313l1.313 2c-1 1-1 1-3.941 1.098l-3.621-.035-3.629-.027L177 240l-2-4c1.726-1.726 3.962-1.253 6.313-1.312z" fill="#fe943f"/><path d="M250 380v4h-2v2c-2.882.961-4.699 1.106-7.687 1.063l-2.449-.027L236 387l1-3h3v-2c3.402-2.094 6.053-2.179 10-2z" fill="#f76225"/><path d="M397 254c6.837 8.407 11.741 21.835 10.688 32.688-.208 1.441-.43 2.88-.687 4.313h-1l-.227-2.465c-.926-8.073-2.759-15.104-5.653-22.672-1.506-3.957-2.585-7.63-3.121-11.864z" fill="#f05318"/><path d="M51 183l3 1 2 22c-3.42-3.42-3.241-7.053-3.562-11.687l-.254-3.574L52 188c-2.808 2.225-5.53 4.4-8 7 0-3.803 1.138-4.777 3.5-7.687l1.969-2.449L51 183z" fill="#f8711f"/><path d="M54 177c.629 1.855.629 1.855 1 4-2.062 2.313-2.062 2.313-5 5l-3.25 3.688-1.516 1.762c-1.319 1.547-1.319 1.547-2.234 3.551h-4c.581-3.428 1.686-5.045 4.16-7.453l1.904-1.875 1.998-1.922 2.01-1.969L54 177z" fill="#fe913c"/><path d="M218 382h12l1 4c-3.18 2.12-3.546 2.25-7.062 1.75l-2.098-.266C220 387 220 387 218 385v-3z" fill="#fc8033"/><path d="M229 62h1l.625 6.188.352 3.48C231 75.033 230.474 77.012 229 80l-3-5-2.5-.75L221 73c-.812-3.125-.812-3.125-1-6l9 4v-9z" fill="#7f0a0e"/><path d="M179 33c-.39 2.434-.719 3.72-2.488 5.484l-1.824 1.266-1.801 1.297C171 42 171 42 167 42c0-4 0-4 1.75-6.187C172.29 32.961 174.468 33 179 33z" fill="#fe8f3c"/><path d="M144 110c0 3 0 3-2.25 5.5-6.05 5.5-6.05 5.5-9.75 5.5v-4h3l.313-2.375c1.261-4.814 4.307-4.862 8.688-4.625z" fill="#fc8334"/><path d="M458 327c1.285 3.855.405 5.403-.937 9.188l-1.152 3.293L455 342h-4c-.539-5.39.881-9.629 4-14l3-1z" fill="#fc8635"/><path d="M463 292h3l-.937 7.875-.264 2.262c-.686 5.637-.686 5.637-1.799 7.863h-3c.43-6.251 1.014-12.042 3-18z" fill="#fe903b"/><path d="M27 221l3 1-1 14-4-1-.125-4.75-.07-2.672c.204-2.692.83-4.277 2.195-6.578z" fill="#ff9540"/><path d="M397 359c1.813 0 1.813 0 4 1 2.441 3.227 4 5.917 4 10l-5-1v-2l-3-1c-.381-1.991-.713-3.993-1-6l1-1z" fill="#fd8837"/><path d="M467 261h3c1.748 5.244 2.194 9.473 2 15h-2v-2h-3v-13z" fill="#fe7f34"/><path d="M412 296l1 3c-4.377 7.594-10.026 12.243-18.375 14.75-4.692 1.188-8.804 1.523-13.625 1.25v-1l2.781-.516c7.058-1.394 12.977-2.901 19.219-6.484l2.145-1.008c2.419-1.293 2.786-2.497 3.855-4.992l3-5z" fill="#ef5517"/><path d="M36 259c2.188-.375 2.188-.375 5 0 2.846 2.911 4.708 5.125 6 9l-5-1-2.187-.375C38 266 38 266 36 263v-4z" fill="#fe8b39"/><path d="M73 165c-3.54 2.916-7.163 5.501-11 8l1 2c-.168 2.696-.612 5.324-1 8h-1v-7l-4 1c.647-1.343 1.319-2.674 2-4l1.25-2.562c3.216-4.479 7.35-5.914 12.75-5.437z" fill="#fe8935"/><path d="M157 76h3l-.937 5.875-.527 3.305C158 88 158 88 157 90h-4c.539-5.277 1.773-9.256 4-14z" fill="#fb792e"/><path d="M84 277l3 2c-1 3-1 3-3 4h-7l-2-4c3.47-2.313 4.925-2.34 9-2z" fill="#fe903c"/><path d="M172 237l-1 3-5 1v2h-7l-1-3c5.009-3.006 8.327-3.293 14-3z" fill="#fd8b39"/><path d="M430 223c6.463-.454 9.609.406 15 4v3c-6.053-.378-10.184-2.297-15-6v-1z" fill="#fe8b39"/><path d="M200 276h2c1.298 2.595 1.133 4.542 1.125 7.438l.008 2.934C203 289 203 289 202 292h-2c-1.034-3.101-1.134-5.314-1.125-8.562l-.008-2.941C199 278 199 278 200 276z" fill="#fe8235"/><path d="M351 223c5.778-.12 11.28.168 17 1v4l-12-1v-2l-5-1v-1z" fill="#fe8536"/><path d="M211 58c3.012 1.744 4.725 3.118 5.777 6.492L218 72c-3.781-.742-3.781-.742-5.75-3.062-1.657-3.895-1.464-6.726-1.25-10.937z" fill="#fe8737"/><path d="M421 219l-1 3-6.152.684c-1.859.135-1.859.135-2.848 1.316h-6v-4a98.44 98.44 0 0 1 16-1z" fill="#fd7e32"/><path d="M54 273c5.264-.501 7.909.688 12 4v2c-3.191 1.003-4.576 1.187-7.687-.187-2.34-1.834-3.272-3.068-4.312-5.812z" fill="#fc7f31"/><path d="M264 339h2c-.515 5.853-1.454 11.33-3 17h-2c.515-5.853 1.454-11.33 3-17z" fill="#fe8337"/><path d="M195 243c4.75.75 4.75.75 7 3v6c-2.86-1.282-5.07-2.492-7-5v-4z" fill="#fe8736"/><path d="M183 38c4.499.196 8.07.488 12.063 2.688C197 43 197 43 197.313 46.25L197 49l-4.562-4.625c-1.41-1.484-1.41-1.484-3.437-2.375v-2h-7l1-2z" fill="#fe8b39"/><path d="M390 343h5l1 9c-4-1-4-1-5.25-2.812C390 347 390 347 390 343z" fill="#fe8f3b"/><path d="M300 200l1.625.875c2.451 1.245 2.451 1.245 5.563 2L310 204c.875 2.125.875 2.125 1 4-6.333-.487-6.333-.487-9.437-2.875C300 203 300 203 300 200z" fill="#fa782e"/><path d="M275 160c6.682 3.159 6.682 3.159 8.063 6.813-.072 3.685-.88 6.708-2.062 10.188l-3-1 .938-2.125c1.096-2.964 1.627-5.752 2.063-8.875l-5-1-1-4z" fill="#e55418"/><path d="M198 253l4 1v8h-4c-1.125-6.75-1.125-6.75 0-9z" fill="#fd8534"/><path d="M354 248c8.079-.096 15.983-.125 24 1v1h-7v2l4 2c-2.801-.389-4.588-.653-6.781-2.5-2.877-1.945-5.025-2-8.469-2.187l-3.266-.199L354 249v-1z" fill="#e94622"/><path d="M203 373c2.867.573 3.861.861 6 3l1 6c-2.954-1.372-5.44-2.989-8-5l1-4z" fill="#fd8132"/><path d="M251 369l3 3 5-2-1 6-6 1c-1-1-1-1-1.062-4.562L251 369z" fill="#fa762e"/><path d="M111 269c-4.111 3.524-7.465 6-13 6v-2l4.25-2.562 2.391-1.441c2.668-1.126 3.704-1.013 6.359.004z" fill="#fe873a"/><path d="M187 33h12v3h-12v-3z" fill="#fe8b38"/><path d="M129.25 252.375L131 253l-3 1-1 2-7.125.063-2.016.025c-4.066.02-7.871-.299-11.859-1.088v-1l3.578.07 4.672.055 2.355.051c4.351.037 8.859-2.432 12.645-1.801z" fill="#e5511b"/><path d="M394 222v3h-13v-2c4.409-1.102 8.484-1.077 13-1z" fill="#fe8a37"/><path d="M151 94h1c-.549 4.571-1.417 8.674-3 13h-3c.515-5.281 2.255-8.572 5-13z" fill="#fe8c3a"/><path d="M296.938 319.313C299 320 299 320 302 322c-3.402 2.094-6.053 2.179-10 2 .375-1.937.375-1.937 1-4 2-1 2-1 3.938-.687z" fill="#ff9340"/><path d="M329 245h2v8l-2 1-3-2v-4h3v-3z" fill="#e83314"/><path d="M73 166v3l-4.312 2.563-2.426 1.441C64 174 64 174 61 173l4.313-3.5 2.426-1.969C70 166 70 166 73 166z" fill="#ff9245"/><path d="M174 234l-4 2v1c-7.442 1.364-7.442 1.364-10.266-.48L158 235l5.75-1.062 3.234-.598c2.763-.311 4.425-.239 7.016.66z" fill="#f25518"/><path d="M378 285l1 2-1 3 5 1-2 3-5-1v-6l2-2z" fill="#c11219"/><path d="M51 183l3 2-10 10c0-3.803 1.138-4.777 3.5-7.687l1.969-2.449L51 183z" fill="#d95b13"/><path d="M186 33l1 3h10c-4.517 3.011-7.664 3.101-13 3l2-2v-4z" fill="#ee4b19"/><path d="M176 235l4 1-2 2 12 1v1h-13l-2-4 1-1z" fill="#fd7a2c"/><path d="M231 64l4 1 2 7c-1.875-.625-1.875-.625-4-2-1.25-3.125-1.25-3.125-2-6z" fill="#b60f14"/><path d="M31 242c1.913 3.266 2.357 5.994 2.625 9.75l.227 2.984L34 257h-5l2-2c.244-3.128.244-3.128.125-6.625l-.055-3.602L31 242z" fill="#f76925"/><path d="M203 354h2c1.354 2.709 1.065 5.009 1 8h-3v-8z" fill="#fd7c33"/><path d="M468 301c1.409 2.818.509 4.173-.437 7.125l-.871 2.758L466 313c-1.181-3.543-1.27-6.284-1-10l3-2z" fill="#b50f16"/><path d="M164 73l1 3c-.996 1.824-.996 1.824-2.437 3.688l-1.434 1.887L160 83c-.934-3.01-1.044-3.867 0-7h3l1-3z" fill="#e53014"/><path d="M178 36l1 3c-3.423 3.15-6.443 3.562-11 4l3-2 3.688-2.625 1.887-1.352L178 36z" fill="#ef4c18"/><path d="M249 381l-1 4h-6c3.625-4 3.625-4 7-4z" fill="#fe923d"/><path d="M73 165c-4.625 4-4.625 4-8 4v-3c2.928-.976 4.956-1.082 8-1z" fill="#f9792d"/><path d="M111 269l-5 4-2-2v-2c3.133-1.044 3.99-.934 7 0z" fill="#fd7c31"/><path d="M362 250c0 3.589-.664 4.109-3 6.688l-1.687 1.887L356 260l-1-3 7-7z" fill="#f75c19"/><path d="M316 235h4l1 3-4 2v-2h-2l1-3z" fill="#d71b13"/><path d="M43 194c0 3.106-.539 4.353-2 7l-1-5-4-1 7-1z" fill="#d52c13"/><path d="M79 154l2 1-3 6 4 1h-5v-7l2-1z" fill="#f96c26"/><path d="M148 141h5l1 3-4 1-2-4z" fill="#febf3d"/><path d="M162 58l3 1-1 6h-3l1-7z" fill="#fe7c2d"/><path d="M312.25 320.313L314 321c-1.75 1.563-1.75 1.563-4 3-2.25-.312-2.25-.312-4-1 3.446-3.077 3.446-3.077 6.25-2.687z" fill="#d42517"/><path d="M466 292c1.125 1.75 1.125 1.75 2 4-.967 2.66-2.419 4.629-4 7 1-7.429 1-7.429 2-11z" fill="#e53f17"/></svg>