<?xml version="1.0" encoding="UTF-8"?>
<svg version="1.1" xmlns="http://www.w3.org/2000/svg" width="64" height="64">
<path d="M0 0 C2.21894132 0.49309807 4.08289367 1.04144683 6.125 2.0625 C11.67035664 3.87076847 17.09432101 3.83156901 22.4375 1.5 C23.283125 1.005 24.12875 0.51 25 0 C25.99 0 26.98 0 28 0 C28.29003091 5.60726423 28.13444318 9.1241995 25 14 C21.31296857 16.45802095 18.39825909 16.40285195 14.125 16.4375 C13.06345703 16.48680664 13.06345703 16.48680664 11.98046875 16.53710938 C7.98495927 16.57803173 6.2143821 16.17031151 3.0546875 13.66015625 C-0.47390275 9.0917723 -0.09052013 5.52172819 0 0 Z " fill="#000000" transform="translate(18,48)"/>
<path d="M0 0 C3.33333333 3.33333333 6.66666667 6.66666667 10 10 C10.8971875 10.7734375 10.8971875 10.7734375 11.8125 11.5625 C13 13 13 13 13 17 C10.76953125 18.921875 10.76953125 18.921875 7.8125 20.75 C6.84957031 21.36359375 5.88664062 21.9771875 4.89453125 22.609375 C1.90103304 24.04754688 0.261984 24.56338238 -3 24 C-3.66 23.01 -4.32 22.02 -5 21 C-4.67 20.34 -4.34 19.68 -4 19 C-3.80152578 15.86116704 -3.65462678 12.72965567 -3.5703125 9.5859375 C-3.37588867 5.47063314 -2.88478785 3.00820124 0 0 Z " fill="#000000" transform="translate(51,40)"/>
<path d="M0 0 C3.10097341 2.42012096 3.93762108 3.61257172 4.57421875 7.56640625 C4.61160156 8.88511719 4.64898438 10.20382813 4.6875 11.5625 C4.81708772 16.85486383 4.81708772 16.85486383 6 22 C5.34 22.66 4.68 23.32 4 24 C-2.63031222 24 -6.79794753 20.85730421 -12 17 C-11.37497995 12.52068965 -10.26361851 11.14737342 -6.6328125 8.40234375 C-3.84418751 6.00732851 -2.03063449 3.04595173 0 0 Z " fill="#000000" transform="translate(12,40)"/>
<path d="M0 0 C6.8488746 0 6.8488746 0 10.125 2.0625 C10.76695313 2.44535156 11.40890625 2.82820312 12.0703125 3.22265625 C14 5 14 5 18 12 C12.06 12 6.12 12 0 12 C0 8.04 0 4.08 0 0 Z " fill="#000000" transform="translate(33,0)"/>
<path d="M0 0 C0 3.96 0 7.92 0 12 C-5.94 12 -11.88 12 -18 12 C-13.45691906 4.04960836 -13.45691906 4.04960836 -10.125 2.0625 C-9.16980469 1.46115234 -9.16980469 1.46115234 -8.1953125 0.84765625 C-6 0 -6 0 0 0 Z " fill="#000000" transform="translate(31,0)"/>
<path d="M0 0 C6.27 0 12.54 0 19 0 C20 2 20 2 20 8 C13.4 8 6.8 8 0 8 C0 5.36 0 2.72 0 0 Z " fill="#000000" transform="translate(33,15)"/>
<path d="M0 0 C6.27 0 12.54 0 19 0 C19 2.64 19 5.28 19 8 C12.4 8 5.8 8 -1 8 C-1 2 -1 2 0 0 Z " fill="#000000" transform="translate(12,15)"/>
<path d="M0 0 C6.6 0 13.2 0 20 0 C19 7 19 7 18 8 C16.65732587 8.08631874 15.31025678 8.10706473 13.96484375 8.09765625 C13.15595703 8.09443359 12.34707031 8.09121094 11.51367188 8.08789062 C10.66353516 8.07951172 9.81339844 8.07113281 8.9375 8.0625 C8.08349609 8.05798828 7.22949219 8.05347656 6.34960938 8.04882812 C4.23304337 8.03700373 2.11651315 8.01906769 0 8 C0 5.36 0 2.72 0 0 Z " fill="#000000" transform="translate(33,26)"/>
<path d="M0 0 C6.6 0 13.2 0 20 0 C20 2.64 20 5.28 20 8 C14.06 8 8.12 8 2 8 C0 2 0 2 0 0 Z " fill="#000000" transform="translate(11,26)"/>
<path d="M0 0 C5.28 0 10.56 0 16 0 C13.82918966 5.42702586 11.8694653 7.94197579 7 11 C4.55272137 11.73038936 2.57814525 11.89476958 0 12 C0 8.04 0 4.08 0 0 Z " fill="#000000" transform="translate(33,37)"/>
<path d="M0 0 C5.28 0 10.56 0 16 0 C16 3.96 16 7.92 16 12 C9.94216417 11.87379509 7.08073302 9.87300757 2.6015625 5.88671875 C1 4 1 4 0 0 Z " fill="#000000" transform="translate(15,37)"/>
</svg>
