<?xml version="1.0" encoding="UTF-8"?>
<svg version="1.1" xmlns="http://www.w3.org/2000/svg" width="340" height="431">
<path d="M0 0 C1.57404541 0.42267311 3.14823103 0.84482437 4.72254944 1.26647949 C8.00403325 2.14679419 11.28432524 3.03137145 14.5637207 3.91943359 C18.77101536 5.05870467 22.98033524 6.1902599 27.19045162 7.31905365 C31.21104386 8.39744586 35.2305341 9.47991883 39.25 10.5625 C40.01720808 10.76870468 40.78441616 10.97490936 41.57487297 11.18736267 C43.73665413 11.7691191 45.89761945 12.35380694 48.05834961 12.93945312 C49.28806992 13.27174927 50.51779022 13.60404541 51.78477478 13.94641113 C54.66015625 14.78125 54.66015625 14.78125 56.66015625 15.78125 C56.66015625 22.38125 56.66015625 28.98125 56.66015625 35.78125 C59.01140625 36.3175 61.36265625 36.85375 63.78515625 37.40625 C71.11727134 39.11168379 78.39474987 40.9993768 85.66015625 42.96875 C86.63355957 43.23059082 87.60696289 43.49243164 88.60986328 43.76220703 C89.9650708 44.13321533 89.9650708 44.13321533 91.34765625 44.51171875 C92.15589844 44.73239014 92.96414062 44.95306152 93.796875 45.18041992 C95.66015625 45.78125 95.66015625 45.78125 96.66015625 46.78125 C96.74685057 48.2699686 96.76719119 49.762695 96.7578125 51.25390625 C96.75458984 52.15302734 96.75136719 53.05214844 96.74804688 53.97851562 C96.73966797 54.92404297 96.73128906 55.86957031 96.72265625 56.84375 C96.71814453 57.79314453 96.71363281 58.74253906 96.70898438 59.72070312 C96.69715735 62.07428065 96.6806765 64.42773477 96.66015625 66.78125 C97.6668335 66.96820435 97.6668335 66.96820435 98.69384766 67.15893555 C104.90404977 68.3122588 110.5122065 69.93686507 116.66015625 71.78125 C116.66015625 84.98125 116.66015625 98.18125 116.66015625 111.78125 C122.27015625 113.10125 127.88015625 114.42125 133.66015625 115.78125 C134.65015625 116.44125 135.64015625 117.10125 136.66015625 117.78125 C136.94665145 120.38412362 137.0386387 122.74830374 137.00073242 125.35205078 C137.0011705 126.13262848 137.00160858 126.91320618 137.00205994 127.71743774 C136.99996566 130.30406489 136.97660508 132.89004824 136.953125 135.4765625 C136.94753131 137.26732021 136.94326014 139.0580825 136.94026184 140.84884644 C136.9287952 145.56720608 136.8993125 150.28528964 136.8661499 155.00354004 C136.83548812 159.81612411 136.82176485 164.6287527 136.80664062 169.44140625 C136.77444444 178.88814228 136.72322623 188.3346732 136.66015625 197.78125 C137.91513916 197.93142578 139.17012207 198.08160156 140.46313477 198.23632812 C143.93825981 198.65217412 147.22197088 199.33435368 150.59765625 200.28125 C151.53480469 200.5390625 152.47195313 200.796875 153.4375 201.0625 C155.66015625 201.78125 155.66015625 201.78125 156.66015625 202.78125 C156.74883924 205.73830321 156.77535921 208.67190056 156.7578125 211.62890625 C156.75569008 212.95854652 156.75569008 212.95854652 156.75352478 214.31504822 C156.7479084 217.15798254 156.73535316 220.00083931 156.72265625 222.84375 C156.71764336 224.76627491 156.71308009 226.68880104 156.70898438 228.61132812 C156.69793366 233.33466549 156.68065808 238.05794458 156.66015625 242.78125 C157.26601563 242.89082031 157.871875 243.00039063 158.49609375 243.11328125 C164.6915942 244.28566057 170.65476092 245.86463447 176.66015625 247.78125 C176.90911617 253.4368533 177.08960198 259.08920951 177.20947266 264.74902344 C177.25947703 266.66983645 177.32751019 268.59027429 177.41455078 270.50976562 C178.15457674 287.26047074 178.15457674 287.26047074 174.52368164 292.31982422 C170.74768306 296.22903634 168.34617031 298.61541255 162.84765625 299.15625 C160.953125 298.62109375 160.953125 298.62109375 158.66015625 297.78125 C157.54253906 297.45253906 156.42492187 297.12382812 155.2734375 296.78515625 C152.05352007 295.83484548 148.85494228 294.81289966 145.66015625 293.78125 C145.66015625 287.18125 145.66015625 280.58125 145.66015625 273.78125 C142.69015625 273.12125 139.72015625 272.46125 136.66015625 271.78125 C136.71252441 273.1223584 136.76489258 274.4634668 136.81884766 275.84521484 C137.0009082 280.85787266 137.11502091 285.87024379 137.20947266 290.88525391 C137.25952573 293.04851541 137.32759456 295.2114426 137.41455078 297.37353516 C138.15306158 316.21859305 138.15306158 316.21859305 134.56982422 321.48486328 C131.27959472 324.94623606 128.77228416 327.53724019 123.90869141 328.09912109 C121.66740464 327.91699637 119.77639192 327.52755533 117.66015625 326.78125 C117.51578125 327.750625 117.37140625 328.72 117.22265625 329.71875 C115.63395441 335.20596843 111.47949575 339.85873508 106.66015625 342.78125 C99.96837476 342.67190717 93.5691248 340.53126014 87.16015625 338.71875 C86.14695313 338.43708984 85.13375 338.15542969 84.08984375 337.86523438 C81.61182891 337.17559817 79.13537625 336.48083811 76.66015625 335.78125 C76.75167969 336.65910156 76.84320313 337.53695313 76.9375 338.44140625 C76.57894145 342.75925915 75.22028402 344.14812064 72.22265625 347.21875 C71.39894531 348.10433594 70.57523438 348.98992187 69.7265625 349.90234375 C64.54831501 353.07525718 59.98771265 351.33366139 54.41674805 350.01147461 C50.67218281 349.06398652 46.94647549 348.05630132 43.22265625 347.03125 C41.36350586 346.52851562 41.36350586 346.52851562 39.46679688 346.015625 C33.36613359 344.36120784 27.27446014 342.67546032 21.18548584 340.97859192 C10.63114028 338.03768326 0.05610313 335.17798213 -10.52734375 332.34375 C-11.41606171 332.10546478 -12.30477966 331.86717957 -13.22042847 331.62167358 C-26.91240633 327.95094698 -40.61620119 324.33212255 -54.33984375 320.78125 C-54.33984375 313.85125 -54.33984375 306.92125 -54.33984375 299.78125 C-55.84160156 299.53632813 -57.34335938 299.29140625 -58.890625 299.0390625 C-66.22713492 297.70515161 -73.35987903 295.68224388 -80.52734375 293.65625 C-81.87422207 293.27949401 -83.22122664 292.90318905 -84.56835938 292.52734375 C-87.82675819 291.61639354 -91.08347725 290.69943859 -94.33984375 289.78125 C-94.33984375 282.85125 -94.33984375 275.92125 -94.33984375 268.78125 C-96.97984375 268.45125 -99.61984375 268.12125 -102.33984375 267.78125 C-104.3301136 267.32745861 -106.31185719 266.83257863 -108.27734375 266.28125 C-109.21449219 266.0234375 -110.15164062 265.765625 -111.1171875 265.5 C-113.33984375 264.78125 -113.33984375 264.78125 -114.33984375 263.78125 C-114.43370756 261.9094406 -114.45728179 260.0340694 -114.45336914 258.15991211 C-114.45329361 256.95874252 -114.45321808 255.75757294 -114.45314026 254.52000427 C-114.44797897 253.2127388 -114.44281769 251.90547333 -114.4375 250.55859375 C-114.43563573 249.21480868 -114.43421187 247.87102293 -114.43321228 246.52723694 C-114.42938777 242.98442723 -114.41955807 239.4416583 -114.4085083 235.89886475 C-114.39829274 232.28609773 -114.39371435 228.67332416 -114.38867188 225.06054688 C-114.37793573 217.9674312 -114.36086011 210.87434326 -114.33984375 203.78125 C-117.30984375 203.12125 -120.27984375 202.46125 -123.33984375 201.78125 C-123.24832031 202.64492187 -123.15679687 203.50859375 -123.0625 204.3984375 C-123.51368155 209.90158147 -126.7777662 213.24768777 -130.7734375 216.8046875 C-133.56899991 218.74893632 -135.38131781 219.02861635 -138.75 218.6328125 C-143.09323849 217.73822262 -147.19224433 216.33659978 -151.33984375 214.78125 C-152.32984375 214.45125 -153.31984375 214.12125 -154.33984375 213.78125 C-154.56359546 207.96485292 -154.72621628 202.15099812 -154.83422852 196.33129883 C-154.87928142 194.35526868 -154.94054713 192.37953509 -155.01879883 190.40454102 C-155.73343757 171.89399637 -155.73343757 171.89399637 -150.4296875 165.87109375 C-146.81637312 163.04395796 -144.33317706 162.33926633 -139.77734375 162.71875 C-138.28749463 163.02488338 -136.80218336 163.36300255 -135.33984375 163.78125 C-135.35668213 163.01047119 -135.37352051 162.23969238 -135.39086914 161.44555664 C-135.44152493 157.91052532 -135.42244111 154.37905899 -135.40234375 150.84375 C-135.43005859 149.63138672 -135.45777344 148.41902344 -135.48632812 147.16992188 C-135.39524512 140.44799608 -134.80548686 136.39735811 -130.08203125 131.41015625 C-127.53154926 129.06370212 -126.16990561 127.88239426 -122.71313477 127.46118164 C-119.60558006 127.72350982 -117.12446013 128.38894181 -114.33984375 129.78125 C-114.36204987 128.96407501 -114.38425598 128.14690002 -114.40713501 127.30496216 C-114.60830515 119.5676026 -114.76014495 111.83152695 -114.85796547 104.09222603 C-114.90995132 100.11405165 -114.98033342 96.13805421 -115.09423828 92.16113281 C-115.20366871 88.3159469 -115.26283954 84.47284074 -115.28861618 80.62621689 C-115.30695961 79.16603744 -115.34278404 77.70595991 -115.39714432 76.2466774 C-115.61525201 70.14356577 -115.69882598 64.86064128 -112.24481201 59.57562256 C-105.94682556 52.84301844 -105.94682556 52.84301844 -101.3553772 52.66653442 C-98.85383127 53.13047326 -96.67415182 53.77799419 -94.33984375 54.78125 C-94.3869751 54.01047119 -94.43410645 53.23969238 -94.48266602 52.44555664 C-94.67113774 48.9123083 -94.78720621 45.38011732 -94.90234375 41.84375 C-94.97775391 40.63138672 -95.05316406 39.41902344 -95.13085938 38.16992188 C-95.29509289 31.43634787 -94.87495528 27.43243334 -90.15234375 22.40625 C-87.44666023 19.90554251 -86.10663829 18.85756422 -82.41821289 18.49047852 C-79.95263653 18.70359804 -77.71661335 19.10146412 -75.33984375 19.78125 C-75.36046875 18.811875 -75.38109375 17.8425 -75.40234375 16.84375 C-74.68773584 11.87212068 -71.36623787 8.94477834 -68.0546875 5.40625 C-62.85502698 2.29393522 -57.07379463 4.81276451 -51.52734375 6.19140625 C-49.463454 6.73695673 -47.40096729 7.28783996 -45.33984375 7.84375 C-44.27894531 8.12541016 -43.21804687 8.40707031 -42.125 8.69726562 C-39.52866974 9.38728133 -36.93371064 10.08204203 -34.33984375 10.78125 C-34.42105469 9.729375 -34.50226563 8.6775 -34.5859375 7.59375 C-34.29848531 3.14052247 -33.48952582 1.90537271 -30.40234375 -1.21875 C-29.30599609 -2.394375 -29.30599609 -2.394375 -28.1875 -3.59375 C-20.60318175 -7.92170116 -8.04929495 -2.18635893 0 0 Z " fill="#0185FE" transform="translate(154.33984375,47.21875)"/>
<path d="M0 0 C20.50376006 5.20132149 40.97555755 10.4675186 61.375 16.0625 C62.69999512 16.42415756 62.69999512 16.42415756 64.05175781 16.79312134 C66.54340047 17.47410241 69.03365245 18.15991853 71.5234375 18.84765625 C72.26951263 19.05138855 73.01558777 19.25512085 73.78427124 19.46502686 C78.88464597 20.88464597 78.88464597 20.88464597 80 22 C80.08868299 24.95705321 80.11520296 27.89065056 80.09765625 30.84765625 C80.0962413 31.7340831 80.09482635 32.62050995 80.09336853 33.53379822 C80.08775215 36.37673254 80.07519691 39.21958931 80.0625 42.0625 C80.05748711 43.98502491 80.05292384 45.90755104 80.04882812 47.83007812 C80.03777741 52.55341549 80.02050183 57.27669458 80 62 C80.68964844 62.10957031 81.37929687 62.21914062 82.08984375 62.33203125 C83.02957031 62.49058594 83.96929687 62.64914063 84.9375 62.8125 C85.85402344 62.96332031 86.77054687 63.11414063 87.71484375 63.26953125 C91.89250157 64.1984516 95.93993274 65.64664425 100 67 C100 73.6 100 80.2 100 87 C105.45923269 88.27291856 105.45923269 88.27291856 110.91918945 89.54272461 C111.60198975 89.70264893 112.28479004 89.86257324 112.98828125 90.02734375 C114.03302612 90.27085571 114.03302612 90.27085571 115.09887695 90.51928711 C116.7534406 90.93765565 118.38094108 91.46031369 120 92 C120 131.6 120 171.2 120 212 C109 210 109 210 100 207 C100 213.6 100 220.2 100 227 C90.30815744 224.79730851 80.69392915 222.42183615 71.1015625 219.8203125 C69.97780212 219.51662247 68.85404175 219.21293243 67.69622803 218.90003967 C54.87551076 215.43204708 42.06239234 211.93609674 29.25 208.4375 C26.90495911 207.79748503 24.55990704 207.15751101 22.21484375 206.51757812 C17.66075104 205.27478278 13.10671732 204.03177169 8.55273438 202.78857422 C-0.96436763 200.19063677 -10.48220536 197.59539862 -20 195 C-20.495 185.1 -20.495 185.1 -21 175 C-30.405 172.525 -30.405 172.525 -40 170 C-40 130.4 -40 90.8 -40 50 C-33.43404228 50.93799396 -27.40522081 52.34471822 -21 54 C-20.67 47.73 -20.34 41.46 -20 35 C-17.256875 35.639375 -14.51375 36.27875 -11.6875 36.9375 C-10.39718872 37.23708618 -10.39718872 37.23708618 -9.08081055 37.54272461 C-8.39801025 37.70264893 -7.71520996 37.86257324 -7.01171875 38.02734375 C-6.31522217 38.18968506 -5.61872559 38.35202637 -4.90112305 38.51928711 C-3.2465594 38.93765565 -1.61905892 39.46031369 0 40 C0 26.8 0 13.6 0 0 Z " fill="#FCFCFC" transform="translate(120,152)"/>
<path d="M0 0 C0 6.6 0 13.2 0 20 C1.44375 20.268125 2.8875 20.53625 4.375 20.8125 C9.78312076 21.81686528 14.62321531 23.38696459 20 25 C20 38.2 20 51.4 20 65 C25.61 66.32 31.22 67.64 37 69 C37.99 69.66 38.98 70.32 40 71 C40.2864952 73.60287362 40.37848245 75.96705374 40.34057617 78.57080078 C40.34101425 79.35137848 40.34145233 80.13195618 40.34190369 80.93618774 C40.33980941 83.52281489 40.31644883 86.10879824 40.29296875 88.6953125 C40.28737506 90.48607021 40.28310389 92.2768325 40.28010559 94.06759644 C40.26863895 98.78595608 40.23915625 103.50403964 40.20599365 108.22229004 C40.17533187 113.03487411 40.1616086 117.8475027 40.14648438 122.66015625 C40.11428819 132.10689228 40.06306998 141.5534232 40 151 C41.25498291 151.15017578 42.50996582 151.30035156 43.80297852 151.45507812 C47.27810356 151.87092412 50.56181463 152.55310368 53.9375 153.5 C54.87464844 153.7578125 55.81179688 154.015625 56.77734375 154.28125 C59 155 59 155 60 156 C60.08868299 158.95705321 60.11520296 161.89065056 60.09765625 164.84765625 C60.09553383 166.17729652 60.09553383 166.17729652 60.09336853 167.53379822 C60.08775215 170.37673254 60.07519691 173.21958931 60.0625 176.0625 C60.05748711 177.98502491 60.05292384 179.90755104 60.04882812 181.83007812 C60.03777741 186.55341549 60.02050183 191.27669458 60 196 C60.60585938 196.10957031 61.21171875 196.21914063 61.8359375 196.33203125 C68.03143795 197.50441057 73.99460467 199.08338447 80 201 C80.24895992 206.6556033 80.42944573 212.30795951 80.54931641 217.96777344 C80.59932078 219.88858645 80.66735394 221.80902429 80.75439453 223.72851562 C81.49442049 240.47922074 81.49442049 240.47922074 77.86352539 245.53857422 C74.08752681 249.44778634 71.68601406 251.83416255 66.1875 252.375 C64.29296875 251.83984375 64.29296875 251.83984375 62 251 C60.32357422 250.50693359 60.32357422 250.50693359 58.61328125 250.00390625 C55.39336382 249.05359548 52.19478603 248.03164966 49 247 C49 240.4 49 233.8 49 227 C46.03 226.34 43.06 225.68 40 225 C40.07855225 227.0116626 40.07855225 227.0116626 40.15869141 229.06396484 C40.34075195 234.07662266 40.45486466 239.08899379 40.54931641 244.10400391 C40.59936948 246.26726541 40.66743831 248.4301926 40.75439453 250.59228516 C41.49290533 269.43734305 41.49290533 269.43734305 37.90966797 274.70361328 C34.61943847 278.16498606 32.11212791 280.75599019 27.24853516 281.31787109 C25.00724839 281.13574637 23.11623567 280.74630533 21 280 C20.855625 280.969375 20.71125 281.93875 20.5625 282.9375 C18.97379816 288.42471843 14.8193395 293.07748508 10 296 C3.30821851 295.89065717 -3.09103145 293.75001014 -9.5 291.9375 C-10.51320312 291.65583984 -11.52640625 291.37417969 -12.5703125 291.08398438 C-15.04832734 290.39434817 -17.52478 289.69958811 -20 289 C-19.90847656 289.87785156 -19.81695312 290.75570313 -19.72265625 291.66015625 C-20.0812148 295.97800915 -21.43987223 297.36687064 -24.4375 300.4375 C-25.26121094 301.32308594 -26.08492188 302.20867187 -26.93359375 303.12109375 C-32.11184124 306.29400718 -36.6724436 304.55241139 -42.2434082 303.23022461 C-45.98797344 302.28273652 -49.71368076 301.27505132 -53.4375 300.25 C-54.67693359 299.91484375 -55.91636719 299.5796875 -57.19335938 299.234375 C-63.29402266 297.57995784 -69.38569611 295.89421032 -75.47467041 294.19734192 C-86.02901597 291.25643326 -96.60405312 288.39673213 -107.1875 285.5625 C-108.07621796 285.32421478 -108.96493591 285.08592957 -109.88058472 284.84042358 C-123.57256258 281.16969698 -137.27635744 277.55087255 -151 274 C-151 267.07 -151 260.14 -151 253 C-139.75078801 255.2498424 -139.75078801 255.2498424 -134.25390625 256.73657227 C-133.02193512 257.06803253 -131.78996399 257.3994928 -130.5206604 257.74099731 C-129.20126155 258.09942261 -127.88187509 258.45789352 -126.5625 258.81640625 C-125.16596517 259.19324555 -123.76934659 259.56977455 -122.37265015 259.9460144 C-118.67427983 260.94303804 -114.97693003 261.94379534 -111.27977753 262.94532394 C-105.20011353 264.5911964 -99.11850985 266.22990158 -93.03730392 267.87006569 C-90.79819821 268.47409801 -88.55920516 269.07854665 -86.32022095 269.68302917 C-78.33114233 271.8389949 -70.33869745 273.98121448 -62.3359375 276.0859375 C-61.12638397 276.40415718 -61.12638397 276.40415718 -59.89239502 276.72880554 C-56.42294134 277.6403131 -52.95240818 278.54747324 -49.48046875 279.44946289 C-48.31902344 279.75360107 -47.15757812 280.05773926 -45.9609375 280.37109375 C-45.01009277 280.61786865 -44.05924805 280.86464355 -43.07958984 281.11889648 C-39.01348495 282.28225248 -35.01222451 283.66259183 -31 285 C-31 278.4 -31 271.8 -31 265 C-28.256875 265.639375 -25.51375 266.27875 -22.6875 266.9375 C-21.82729248 267.13722412 -20.96708496 267.33694824 -20.08081055 267.54272461 C-19.05661011 267.78261108 -19.05661011 267.78261108 -18.01171875 268.02734375 C-17.31522217 268.18968506 -16.61872559 268.35202637 -15.90112305 268.51928711 C-14.2465594 268.93765565 -12.61905892 269.46031369 -11 270 C-11.01252808 268.80751648 -11.02505615 267.61503296 -11.03796387 266.38641357 C-11.25923285 245.17174212 -11.46830719 223.95699221 -11.62036133 202.74169922 C-11.6252199 202.06489223 -11.63007847 201.38808525 -11.63508427 200.69076896 C-11.68568214 193.61604987 -11.73462836 186.54132072 -11.78185803 179.46657836 C-11.89623139 162.41025465 -12.04336414 145.3547953 -12.2360394 128.29916954 C-12.38995854 114.60989082 -12.5051736 100.92065706 -12.58730125 87.23075867 C-12.6401752 78.63132269 -12.7231536 70.03323679 -12.84412497 61.43448532 C-12.92468749 55.5039511 -12.96785125 49.57386061 -12.9823578 43.64280045 C-12.99188863 40.20458353 -13.01773591 36.76853708 -13.0877285 33.33097458 C-13.48221102 11.48818349 -13.48221102 11.48818349 -9.77529907 6.09466553 C-3.88166803 0 -3.88166803 0 0 0 Z " fill="#0185FE" transform="translate(251,94)"/>
<path d="M0 0 C19.75288132 4.64773678 39.36978456 9.8587531 59 15 C59 67.8 59 120.6 59 175 C49.99965566 173.87495696 49.99965566 173.87495696 45.7331543 172.70898438 C44.78244553 172.45201782 43.83173676 172.19505127 42.85221863 171.93029785 C41.85297867 171.65423706 40.85373871 171.37817627 39.82421875 171.09375 C38.77724319 170.80898804 37.73026764 170.52422607 36.65156555 170.23083496 C33.32879279 169.32566 30.0081736 168.41284202 26.6875 167.5 C24.43698038 166.88623664 22.18633057 166.27295047 19.93554688 165.66015625 C15.82955572 164.53989573 11.72376275 163.41895261 7.61987305 162.29101562 C6.79794968 162.06530884 5.97602631 161.83960205 5.12919617 161.60705566 C3.40617155 161.11580367 1.69974355 160.56658118 0 160 C-0.495 150.1 -0.495 150.1 -1 140 C-10.405 137.525 -10.405 137.525 -20 135 C-20 95.4 -20 55.8 -20 15 C-13.43404228 15.93799396 -7.40522081 17.34471822 -1 19 C-0.67 12.73 -0.34 6.46 0 0 Z " fill="#FDFDFD" transform="translate(100,187)"/>
<path d="M0 0 C1.38874511 0.36827046 2.76320045 0.79202827 4.125 1.25 C6.12458166 1.77243712 8.12459769 2.29321398 10.125 2.8125 C11.79322271 3.28622085 13.46046212 3.76348985 15.125 4.25 C15.125 5.24 15.125 6.23 15.125 7.25 C13.85248009 8.39751439 12.53134875 9.4915945 11.1875 10.5546875 C6.4245908 15.17269338 6.16885065 19.00104387 6.06616211 25.45678711 C6.08557861 26.74979736 6.10499512 28.04280762 6.125 29.375 C6.11746964 30.73122476 6.10642521 32.08743413 6.09204102 33.44360352 C6.06376731 36.98856578 6.0827869 40.53170802 6.11212158 44.07659912 C6.13361283 47.70352679 6.10974123 51.33013628 6.08984375 54.95703125 C6.05751019 62.05501791 6.07520344 69.15207512 6.125 76.25 C1.39591281 75.68507956 -3.03716508 75.07596385 -7.625 73.75 C-8.52734375 73.4921875 -9.4296875 73.234375 -10.359375 72.96875 C-11.18953125 72.7315625 -12.0196875 72.494375 -12.875 72.25 C-14.20716556 71.91202988 -15.54067549 71.57934326 -16.875 71.25 C-19.4391362 70.58899819 -22.00141023 69.92256021 -24.5625 69.25 C-25.25150391 69.07210937 -25.94050781 68.89421875 -26.65039062 68.7109375 C-31.76074349 67.36425651 -31.76074349 67.36425651 -32.875 66.25 C-33.205 131.92 -33.535 197.59 -33.875 265.25 C-44.875 263.25 -44.875 263.25 -52.875 260.25 C-52.875 240.45 -52.875 220.65 -52.875 200.25 C-55.845 199.59 -58.815 198.93 -61.875 198.25 C-61.78347656 199.11367187 -61.69195312 199.97734375 -61.59765625 200.8671875 C-62.0488378 206.37033147 -65.31292245 209.71643777 -69.30859375 213.2734375 C-72.10415616 215.21768632 -73.91647406 215.49736635 -77.28515625 215.1015625 C-81.62839474 214.20697262 -85.72740058 212.80534978 -89.875 211.25 C-90.865 210.92 -91.855 210.59 -92.875 210.25 C-93.09875171 204.43360292 -93.26137253 198.61974812 -93.36938477 192.80004883 C-93.41443767 190.82401868 -93.47570338 188.84828509 -93.55395508 186.87329102 C-94.26859382 168.36274637 -94.26859382 168.36274637 -88.96484375 162.33984375 C-85.35152937 159.51270796 -82.86833331 158.80801633 -78.3125 159.1875 C-76.82265088 159.49363338 -75.33733961 159.83175255 -73.875 160.25 C-73.89183838 159.47922119 -73.90867676 158.70844238 -73.92602539 157.91430664 C-73.97668118 154.37927532 -73.95759736 150.84780899 -73.9375 147.3125 C-73.96521484 146.10013672 -73.99292969 144.88777344 -74.02148438 143.63867188 C-73.93040137 136.91674608 -73.34064311 132.86610811 -68.6171875 127.87890625 C-66.06670551 125.53245212 -64.70506186 124.35114426 -61.24829102 123.92993164 C-58.14073631 124.19225982 -55.65961638 124.85769181 -52.875 126.25 C-52.89720612 125.43282501 -52.91941223 124.61565002 -52.94229126 123.77371216 C-53.1434614 116.0363526 -53.2953012 108.30027695 -53.39312172 100.56097603 C-53.44510757 96.58280165 -53.51548967 92.60680421 -53.62939453 88.62988281 C-53.73882496 84.7846969 -53.79799579 80.94159074 -53.82377243 77.09496689 C-53.84211586 75.63478744 -53.87794029 74.17470991 -53.93230057 72.7154274 C-54.15040826 66.61231577 -54.23398223 61.32939128 -50.77996826 56.04437256 C-44.48198181 49.31176844 -44.48198181 49.31176844 -39.89053345 49.13528442 C-37.38898752 49.59922326 -35.20930807 50.24674419 -32.875 51.25 C-32.92213135 50.47922119 -32.9692627 49.70844238 -33.01782227 48.91430664 C-33.20629399 45.3810583 -33.32236246 41.84886732 -33.4375 38.3125 C-33.51291016 37.10013672 -33.58832031 35.88777344 -33.66601562 34.63867188 C-33.83024914 27.90509787 -33.41011153 23.90118334 -28.6875 18.875 C-25.98181648 16.37429251 -24.64179454 15.32631422 -20.95336914 14.95922852 C-18.48779278 15.17234804 -16.2517696 15.57021412 -13.875 16.25 C-13.895625 15.280625 -13.91625 14.31125 -13.9375 13.3125 C-13.21641129 8.29578281 -9.92707093 5.28207513 -6.33203125 1.953125 C-3.875 0.25 -3.875 0.25 0 0 Z " fill="#0285FF" transform="translate(92.875,50.75)"/>
<path d="M0 0 C0 0.99 0 1.98 0 3 C-1.27141452 4.15603759 -2.59275228 5.25766824 -3.9375 6.32751465 C-8.61814705 10.8751448 -8.9549303 14.51639699 -9.05882263 20.87994385 C-9.02970543 22.80045563 -9.02970543 22.80045563 -9 24.75976562 C-9.00761691 26.14026151 -9.01874486 27.52074178 -9.03309631 28.90118408 C-9.06198833 32.62845232 -9.04207809 36.35401747 -9.0130806 40.08122444 C-8.99112509 43.98373049 -9.01449591 47.88596573 -9.03295898 51.78845215 C-9.06104181 59.16909665 -9.04864734 66.54908998 -9.02153492 73.92971563 C-8.99263822 82.33612074 -9.00913181 90.74224779 -9.02934647 99.14865589 C-9.06989664 116.43263602 -9.05213374 133.71605968 -9 151 C-18.9 148.525 -18.9 148.525 -29 146 C-29 185.6 -29 225.2 -29 266 C-26.69 266.33 -24.38 266.66 -22 267 C-19.86776267 267.46817622 -17.74190697 267.96677406 -15.625 268.5 C-14.06652344 268.88671875 -14.06652344 268.88671875 -12.4765625 269.28125 C-10 270 -10 270 -9 271 C-8.91330568 272.4887186 -8.89296506 273.981445 -8.90234375 275.47265625 C-8.90556641 276.37177734 -8.90878906 277.27089844 -8.91210938 278.19726562 C-8.92467773 279.61555664 -8.92467773 279.61555664 -8.9375 281.0625 C-8.94201172 282.01189453 -8.94652344 282.96128906 -8.95117188 283.93945312 C-8.9629989 286.29303065 -8.97947975 288.64648477 -9 291 C-17.91318236 289.60764213 -26.51972116 287.32508068 -35.1875 284.875 C-36.53437832 284.49824401 -37.88138289 284.12193905 -39.22851562 283.74609375 C-42.48694305 282.83513555 -45.74378535 281.91882495 -49 281 C-49.77397334 267.07269697 -50.14217717 253.20400404 -50.11352539 239.2565918 C-50.11324232 237.28307598 -50.11340359 235.30956006 -50.1139679 233.33604431 C-50.11425118 228.0523229 -50.10843135 222.76862487 -50.10139394 217.48490882 C-50.09508129 211.93564461 -50.09455041 206.38637968 -50.09336853 200.83711243 C-50.0902783 190.36176358 -50.08209647 179.88642534 -50.07201904 169.41108114 C-50.06078566 157.47128224 -50.05532936 145.5314828 -50.05032361 133.59167993 C-50.03991156 109.0611139 -50.02215259 84.530558 -50 60 C-43.4 61.98 -36.8 63.96 -30 66 C-30 52.47 -30 38.94 -30 25 C-29.67 25 -29.34 25 -29 25 C-29 38.86 -29 52.72 -29 67 C-25.535 67.495 -25.535 67.495 -22 68 C-19.84704827 68.49057814 -17.70040117 69.01000869 -15.5625 69.5625 C-14.51191406 69.83191406 -13.46132812 70.10132812 -12.37890625 70.37890625 C-11.59386719 70.58386719 -10.80882812 70.78882812 -10 71 C-10.02220612 70.25799347 -10.04441223 69.51598694 -10.06729126 68.75149536 C-10.26858743 61.72064695 -10.4203643 54.69081397 -10.51812172 47.6578846 C-10.57007628 44.04279727 -10.64039105 40.43011132 -10.75439453 36.81640625 C-10.86395153 33.32132722 -10.92301919 29.82853966 -10.94877243 26.33187485 C-10.97594597 24.36493924 -11.05387588 22.39891288 -11.13296509 20.43338013 C-11.1375128 13.08470978 -10.21271848 9.40710575 -4.93896484 4.10498047 C-3.32313208 2.70078047 -1.68622354 1.31884166 0 0 Z " fill="#0181FB" transform="translate(109,56)"/>
<path d="M0 0 C20.50708092 5.1760661 40.97762702 10.4680862 61.375 16.0625 C62.69999512 16.42415756 62.69999512 16.42415756 64.05175781 16.79312134 C66.54340047 17.47410241 69.03365245 18.15991853 71.5234375 18.84765625 C72.26951263 19.05138855 73.01558777 19.25512085 73.78427124 19.46502686 C78.88464597 20.88464597 78.88464597 20.88464597 80 22 C80.08868299 24.95705321 80.11520296 27.89065056 80.09765625 30.84765625 C80.0962413 31.7340831 80.09482635 32.62050995 80.09336853 33.53379822 C80.08775215 36.37673254 80.07519691 39.21958931 80.0625 42.0625 C80.05748711 43.98502491 80.05292384 45.90755104 80.04882812 47.83007812 C80.03862648 52.55343964 80.01905437 57.27663258 80 62 C70.595 59.525 70.595 59.525 61 57 C60.67 109.47 60.34 161.94 60 216 C52.62569719 214.52513944 45.29580415 212.82395104 38 211 C38.33 157.87 38.66 104.74 39 50 C36.36 49.67 33.72 49.34 31 49 C28.55290627 48.44160057 26.11601738 47.83660595 23.69140625 47.1875 C22.71312111 46.92682739 22.71312111 46.92682739 21.71507263 46.66088867 C20.35404398 46.29697541 18.99369821 45.93049894 17.6340332 45.56152344 C15.54487697 44.99522299 13.45333789 44.43846826 11.36132812 43.8828125 C1.14043099 41.14043099 1.14043099 41.14043099 0 40 C-0.08868299 37.04294679 -0.11520296 34.10934944 -0.09765625 31.15234375 C-0.0962413 30.2659169 -0.09482635 29.37949005 -0.09336853 28.46620178 C-0.08775215 25.62326746 -0.07519691 22.78041069 -0.0625 19.9375 C-0.05748711 18.01497509 -0.05292384 16.09244896 -0.04882812 14.16992188 C-0.03777741 9.44658451 -0.02050183 4.72330542 0 0 Z " fill="#FBFBFB" transform="translate(120,152)"/>
<path d="M0 0 C5.02305841 0.6278823 9.19076349 1.16851711 13.9375 2.5 C14.87464844 2.7578125 15.81179687 3.015625 16.77734375 3.28125 C19 4 19 4 20 5 C20.0976134 7.32767014 20.12997765 9.62562019 20.12025452 11.95375061 C20.12153615 13.05759138 20.12153615 13.05759138 20.12284368 14.18373197 C20.12450067 16.66816646 20.11897356 19.15253455 20.11352539 21.63696289 C20.11324354 23.41048684 20.11340121 25.18401091 20.1139679 26.95753479 C20.11425595 31.78791017 20.1083579 36.61826094 20.10139394 41.44863057 C20.09516176 46.49085317 20.09455671 51.53307627 20.09336853 56.57530212 C20.09025481 66.13050227 20.08204088 75.68569103 20.07201904 85.24088615 C20.06085916 96.11615433 20.05534777 106.99142305 20.05032361 117.86669552 C20.0398583 140.24447 20.02225807 162.62223436 20 185 C20.71027344 185.13277344 21.42054688 185.26554688 22.15234375 185.40234375 C23.07144531 185.57894531 23.99054688 185.75554687 24.9375 185.9375 C25.85402344 186.11152344 26.77054688 186.28554688 27.71484375 186.46484375 C30 187 30 187 31 188 C31.44756633 192.19084838 31.43534982 194.33626995 29.09375 197.90625 C28.2378125 198.7621875 27.381875 199.618125 26.5 200.5 C25.6646875 201.3765625 24.829375 202.253125 23.96875 203.15625 C20.69111308 205.19183504 19.05761667 205.29859359 15.31054688 204.57275391 C14.54806641 204.38374512 13.78558594 204.19473633 13 204 C12.10861328 203.78134277 11.21722656 203.56268555 10.29882812 203.33740234 C7.35378503 202.57628469 4.42696695 201.76527084 1.5 200.9375 C0.48679688 200.65583984 -0.52640625 200.37417969 -1.5703125 200.08398438 C-4.04832734 199.39434817 -6.52478 198.69958811 -9 198 C-8.86271484 199.31677734 -8.86271484 199.31677734 -8.72265625 200.66015625 C-9.0812148 204.97800915 -10.43987223 206.36687064 -13.4375 209.4375 C-14.26121094 210.32308594 -15.08492188 211.20867187 -15.93359375 212.12109375 C-21.11184124 215.29400718 -25.6724436 213.55241139 -31.2434082 212.23022461 C-34.98797344 211.28273652 -38.71368076 210.27505132 -42.4375 209.25 C-43.67693359 208.91484375 -44.91636719 208.5796875 -46.19335938 208.234375 C-52.29402266 206.57995784 -58.38569611 204.89421032 -64.47467041 203.19734192 C-75.02901597 200.25643326 -85.60405312 197.39673213 -96.1875 194.5625 C-97.07621796 194.32421478 -97.96493591 194.08592957 -98.88058472 193.84042358 C-112.57256258 190.16969698 -126.27635744 186.55087255 -140 183 C-140 176.07 -140 169.14 -140 162 C-128.75078801 164.2498424 -128.75078801 164.2498424 -123.25390625 165.73657227 C-121.40594955 166.23376266 -121.40594955 166.23376266 -119.5206604 166.74099731 C-118.20126155 167.09942261 -116.88187509 167.45789352 -115.5625 167.81640625 C-114.16596517 168.19324555 -112.76934659 168.56977455 -111.37265015 168.9460144 C-107.67427983 169.94303804 -103.97693003 170.94379534 -100.27977753 171.94532394 C-94.20011353 173.5911964 -88.11850985 175.22990158 -82.03730392 176.87006569 C-79.79819821 177.47409801 -77.55920516 178.07854665 -75.32022095 178.68302917 C-67.33114233 180.8389949 -59.33869745 182.98121448 -51.3359375 185.0859375 C-50.12638397 185.40415718 -50.12638397 185.40415718 -48.89239502 185.72880554 C-45.42294134 186.6403131 -41.95240818 187.54747324 -38.48046875 188.44946289 C-37.31902344 188.75360107 -36.15757812 189.05773926 -34.9609375 189.37109375 C-34.01009277 189.61786865 -33.05924805 189.86464355 -32.07958984 190.11889648 C-28.01348495 191.28225248 -24.01222451 192.66259183 -20 194 C-20 187.4 -20 180.8 -20 174 C-17.256875 174.639375 -14.51375 175.27875 -11.6875 175.9375 C-10.82729248 176.13722412 -9.96708496 176.33694824 -9.08081055 176.54272461 C-8.39801025 176.70264893 -7.71520996 176.86257324 -7.01171875 177.02734375 C-6.31522217 177.18968506 -5.61872559 177.35202637 -4.90112305 177.51928711 C-3.2465594 177.93765565 -1.61905892 178.46031369 0 179 C0 179.66 0 180.32 0 181 C1.093125 181.103125 2.18625 181.20625 3.3125 181.3125 C8.62732848 182.09200818 13.81758951 183.58661532 19 185 C19 138.47 19 91.94 19 44 C15.37 43.34 11.74 42.68 8 42 C5.36 41.01 2.72 40.02 0 39 C0 26.13 0 13.26 0 0 Z " fill="#0284FD" transform="translate(240,185)"/>
<path d="M0 0 C20.50708092 5.1760661 40.97762702 10.4680862 61.375 16.0625 C62.69999512 16.42415756 62.69999512 16.42415756 64.05175781 16.79312134 C66.54340047 17.47410241 69.03365245 18.15991853 71.5234375 18.84765625 C72.26951263 19.05138855 73.01558777 19.25512085 73.78427124 19.46502686 C78.88464597 20.88464597 78.88464597 20.88464597 80 22 C80.08868299 24.95705321 80.11520296 27.89065056 80.09765625 30.84765625 C80.0962413 31.7340831 80.09482635 32.62050995 80.09336853 33.53379822 C80.08775215 36.37673254 80.07519691 39.21958931 80.0625 42.0625 C80.05748711 43.98502491 80.05292384 45.90755104 80.04882812 47.83007812 C80.03777741 52.55341549 80.02050183 57.27669458 80 62 C72.94775422 60.14910176 65.89581759 58.29703019 58.84423637 56.44360161 C55.56719699 55.58230497 52.29003682 54.7214749 49.01269531 53.86132812 C36.06511238 50.46296023 23.11915473 47.05806852 10.1953125 43.5703125 C8.80661453 43.19916824 8.80661453 43.19916824 7.38986206 42.82052612 C6.13751266 42.48034958 6.13751266 42.48034958 4.85986328 42.13330078 C3.77041916 41.83928879 3.77041916 41.83928879 2.65896606 41.53933716 C1 41 1 41 0 40 C-0.08868299 37.04294679 -0.11520296 34.10934944 -0.09765625 31.15234375 C-0.0962413 30.2659169 -0.09482635 29.37949005 -0.09336853 28.46620178 C-0.08775215 25.62326746 -0.07519691 22.78041069 -0.0625 19.9375 C-0.05748711 18.01497509 -0.05292384 16.09244896 -0.04882812 14.16992188 C-0.03777741 9.44658451 -0.02050183 4.72330542 0 0 Z " fill="#F7E302" transform="translate(120,152)"/>
<path d="M0 0 C1.38874511 0.36827046 2.76320045 0.79202827 4.125 1.25 C6.12458166 1.77243712 8.12459769 2.29321398 10.125 2.8125 C11.79322271 3.28622085 13.46046212 3.76348985 15.125 4.25 C15.125 5.24 15.125 6.23 15.125 7.25 C13.85248009 8.39751439 12.53134875 9.4915945 11.1875 10.5546875 C6.4245908 15.17269338 6.16885065 19.00104387 6.06616211 25.45678711 C6.08557861 26.74979736 6.10499512 28.04280762 6.125 29.375 C6.11746964 30.73122476 6.10642521 32.08743413 6.09204102 33.44360352 C6.06376731 36.98856578 6.0827869 40.53170802 6.11212158 44.07659912 C6.13361283 47.70352679 6.10974123 51.33013628 6.08984375 54.95703125 C6.05751019 62.05501791 6.07520344 69.15207512 6.125 76.25 C1.39591281 75.68507956 -3.03716508 75.07596385 -7.625 73.75 C-8.52734375 73.4921875 -9.4296875 73.234375 -10.359375 72.96875 C-11.18953125 72.7315625 -12.0196875 72.494375 -12.875 72.25 C-14.20716556 71.91202988 -15.54067549 71.57934326 -16.875 71.25 C-19.4391362 70.58899819 -22.00141023 69.92256021 -24.5625 69.25 C-25.59600586 68.98316406 -25.59600586 68.98316406 -26.65039062 68.7109375 C-31.76074349 67.36425651 -31.76074349 67.36425651 -32.875 66.25 C-33.205 72.85 -33.535 79.45 -33.875 86.25 C-36.453125 85.610625 -39.03125 84.97125 -41.6875 84.3125 C-42.89950073 84.01291382 -42.89950073 84.01291382 -44.13598633 83.70727539 C-47.08712051 82.97236116 -49.98867764 82.21210745 -52.875 81.25 C-54.57902534 61.26833673 -54.57902534 61.26833673 -51 55.4921875 C-46.62652464 50.69503171 -46.62652464 50.69503171 -42.875 49.25 C-39.43620472 49.56722724 -36.19474122 50.31476984 -32.875 51.25 C-32.92213135 50.47922119 -32.9692627 49.70844238 -33.01782227 48.91430664 C-33.20629399 45.3810583 -33.32236246 41.84886732 -33.4375 38.3125 C-33.51291016 37.10013672 -33.58832031 35.88777344 -33.66601562 34.63867188 C-33.83024914 27.90509787 -33.41011153 23.90118334 -28.6875 18.875 C-25.98181648 16.37429251 -24.64179454 15.32631422 -20.95336914 14.95922852 C-18.48779278 15.17234804 -16.2517696 15.57021412 -13.875 16.25 C-13.895625 15.280625 -13.91625 14.31125 -13.9375 13.3125 C-13.21641129 8.29578281 -9.92707093 5.28207513 -6.33203125 1.953125 C-3.875 0.25 -3.875 0.25 0 0 Z " fill="#0286FF" transform="translate(92.875,50.75)"/>
<path d="M0 0 C0.33 0 0.66 0 1 0 C1 13.86 1 27.72 1 42 C4.3 42.66 7.6 43.32 11 44 C13.97 44.99 16.94 45.98 20 47 C20 73.07 20 99.14 20 126 C9 124 9 124 1 121 C1 101.2 1 81.4 1 61 C-1.97 60.34 -4.94 59.68 -8 59 C-7.90847656 59.86367187 -7.81695313 60.72734375 -7.72265625 61.6171875 C-8.1738378 67.12033147 -11.43792245 70.46643777 -15.43359375 74.0234375 C-18.22915616 75.96768632 -20.04147406 76.24736635 -23.41015625 75.8515625 C-27.75339474 74.95697262 -31.85240058 73.55534978 -36 72 C-36.99 71.67 -37.98 71.34 -39 71 C-39 57.8 -39 44.6 -39 31 C-32.73 32.32 -26.46 33.64 -20 35 C-19.67 35.66 -19.34 36.32 -19 37 C-16.33487959 37.34547857 -13.66776116 37.67554256 -11 38 C-7.37 38.99 -3.74 39.98 0 41 C0 27.47 0 13.94 0 0 Z " fill="#0185FF" transform="translate(39,190)"/>
<path d="M0 0 C6.53835385 0.47551664 11.51064777 2.05319433 18 4 C18 50.53 18 97.06 18 145 C6.75 142.75 6.75 142.75 2.875 141.375 C2.12992188 141.11460937 1.38484375 140.85421875 0.6171875 140.5859375 C0.08351562 140.39257812 -0.45015625 140.19921875 -1 140 C-1.02332815 121.89392384 -1.04097876 103.78785157 -1.05181217 85.68176365 C-1.05697531 77.27538616 -1.06401834 68.86901799 -1.07543945 60.46264648 C-1.08538575 53.13832068 -1.0918533 45.81400163 -1.09408849 38.48966926 C-1.09539569 34.60909213 -1.09848212 30.7285343 -1.10573006 26.84796333 C-1.11248942 23.19960443 -1.11461713 19.55127289 -1.11310768 15.90290833 C-1.11351637 13.91711581 -1.118912 11.9313263 -1.12442017 9.94554138 C-1.1230455 8.7745993 -1.12167084 7.60365723 -1.12025452 6.39723206 C-1.12163721 4.86106405 -1.12163721 4.86106405 -1.12304783 3.29386234 C-1 1 -1 1 0 0 Z " fill="#0286FE" transform="translate(61,177)"/>
<path d="M0 0 C0 6.6 0 13.2 0 20 C1.44375 20.268125 2.8875 20.53625 4.375 20.8125 C9.70552411 21.80245448 14.82689682 23.40236801 20 25 C20.24903175 30.51317971 20.4294749 36.02302444 20.54931641 41.54052734 C20.59930959 43.4128527 20.66733455 45.28479349 20.75439453 47.15576172 C21.46986506 62.93819979 21.46986506 62.93819979 17.76904297 68.12939453 C15.98368277 69.7364416 14.15437801 71.29633687 12.27978516 72.79833984 C8.99261768 75.97286076 8.8410197 78.64620422 8.75732422 83.07861328 C8.81557373 84.58657471 8.81557373 84.58657471 8.875 86.125 C8.91625 89.38375 8.9575 92.6425 9 96 C2.4 94.35 -4.2 92.7 -11 91 C-10.91621094 93.66707031 -10.83242187 96.33414063 -10.74609375 99.08203125 C-10.66814323 101.73668591 -10.59286538 104.39140431 -10.51782227 107.04614258 C-10.46525938 108.85644665 -10.41002674 110.66667567 -10.35180664 112.47680664 C-9.94986378 125.04888043 -10.13865413 137.44985831 -11 150 C-11.33 150 -11.66 150 -12 150 C-12.23398304 131.91923852 -12.41012788 113.83887187 -12.51812172 95.75692177 C-12.56960664 87.36038111 -12.63974926 78.96478309 -12.75439453 70.56884766 C-12.85431542 63.24772471 -12.91863974 55.92728459 -12.94088495 48.60549867 C-12.95388217 44.73104867 -12.98424582 40.8585514 -13.05730057 36.98472977 C-13.12563089 33.33152581 -13.14603054 29.68106123 -13.13107681 26.0272789 C-13.13510254 24.06075655 -13.18869065 22.09452701 -13.24420166 20.12878418 C-13.16170932 12.97733249 -12.12124088 9.3310346 -7.05404663 4.12582397 C-2.45096523 0 -2.45096523 0 0 0 Z " fill="#0184FE" transform="translate(251,94)"/>
<path d="M0 0 C5.77003026 1.15400605 11.29628921 2.26247033 16.93652344 3.78417969 C18.20614929 4.12503601 19.47577515 4.46589233 20.78387451 4.81707764 C22.14239503 5.18526833 23.50089463 5.5535362 24.859375 5.921875 C26.29446222 6.30847864 27.72962418 6.69480494 29.16485596 7.08087158 C32.93166622 8.09495062 36.69741237 9.11292713 40.46295166 10.13171387 C44.22072195 11.1475985 47.97956274 12.15950564 51.73828125 13.171875 C67.50006529 17.41912516 83.25375258 21.69547028 99 26 C99 32.93 99 39.86 99 47 C96.56625 46.443125 94.1325 45.88625 91.625 45.3125 C90.53952881 45.06753784 90.53952881 45.06753784 89.43212891 44.81762695 C83.34631274 43.4036814 77.34069822 41.72555538 71.32551575 40.04180908 C62.17256019 37.48140325 52.99323376 35.02108754 43.8125 32.5625 C42.92378204 32.32421478 42.03506409 32.08592957 41.11941528 31.84042358 C27.42743742 28.16969698 13.72364256 24.55087255 0 21 C0 14.07 0 7.14 0 0 Z " fill="#0284FD" transform="translate(100,347)"/>
<path d="M0 0 C0 0.99 0 1.98 0 3 C-1.27141452 4.15603759 -2.59275228 5.25766824 -3.9375 6.32751465 C-8.61814705 10.8751448 -8.9549303 14.51639699 -9.05882263 20.87994385 C-9.02970543 22.80045563 -9.02970543 22.80045563 -9 24.75976562 C-9.00761691 26.14026151 -9.01874486 27.52074178 -9.03309631 28.90118408 C-9.06198833 32.62845232 -9.04207809 36.35401747 -9.0130806 40.08122444 C-8.99112509 43.98373049 -9.01449591 47.88596573 -9.03295898 51.78845215 C-9.06104181 59.16909665 -9.04864734 66.54908998 -9.02153492 73.92971563 C-8.99263822 82.33612074 -9.00913181 90.74224779 -9.02934647 99.14865589 C-9.06989661 116.43262063 -9.05374358 133.71607647 -9 151 C-9.33 151 -9.66 151 -10 151 C-10 131.2 -10 111.4 -10 91 C-12.64 90.67 -15.28 90.34 -18 90 C-21.63 89.01 -25.26 88.02 -29 87 C-29 99.54 -29 112.08 -29 125 C-36.76086957 123.89130435 -36.76086957 123.89130435 -40.1875 122.9375 C-43.99303535 121.84080792 -43.99303535 121.84080792 -48 122 C-48.33 167.54 -48.66 213.08 -49 260 C-49.33 260 -49.66 260 -50 260 C-50 194 -50 128 -50 60 C-43.4 61.98 -36.8 63.96 -30 66 C-30 52.47 -30 38.94 -30 25 C-29.67 25 -29.34 25 -29 25 C-29 38.86 -29 52.72 -29 67 C-25.535 67.495 -25.535 67.495 -22 68 C-19.84704827 68.49057814 -17.70040117 69.01000869 -15.5625 69.5625 C-14.51191406 69.83191406 -13.46132812 70.10132812 -12.37890625 70.37890625 C-11.59386719 70.58386719 -10.80882812 70.78882812 -10 71 C-10.02220612 70.25799347 -10.04441223 69.51598694 -10.06729126 68.75149536 C-10.26858743 61.72064695 -10.4203643 54.69081397 -10.51812172 47.6578846 C-10.57007628 44.04279727 -10.64039105 40.43011132 -10.75439453 36.81640625 C-10.86395153 33.32132722 -10.92301919 29.82853966 -10.94877243 26.33187485 C-10.97594597 24.36493924 -11.05387588 22.39891288 -11.13296509 20.43338013 C-11.1375128 13.08470978 -10.21271848 9.40710575 -4.93896484 4.10498047 C-3.32313208 2.70078047 -1.68622354 1.31884166 0 0 Z " fill="#0176F0" transform="translate(109,56)"/>
<path d="M0 0 C1.40413087 0.38147095 2.8084267 0.76233524 4.21289062 1.14257812 C7.62302374 2.06723327 11.0308522 3.00007462 14.4375 3.9375 C14.4375 4.9275 14.4375 5.9175 14.4375 6.9375 C13.16431743 8.07990221 11.84331097 9.16946307 10.5 10.22851562 C5.69916603 14.88382167 5.4804196 18.79461824 5.37866211 25.29675293 C5.40778687 27.26907898 5.40778687 27.26907898 5.4375 29.28125 C5.42996995 30.65989463 5.41892581 32.03852411 5.40454102 33.41711426 C5.3762629 37.02124977 5.39529012 40.62359554 5.42462158 44.22766113 C5.44611 47.91491005 5.42224234 51.60184577 5.40234375 55.2890625 C5.3700058 62.50578865 5.39190464 69.72076833 5.4375 76.9375 C-0.8325 75.2875 -7.1025 73.6375 -13.5625 71.9375 C-13.8925 51.8075 -14.2225 31.6775 -14.5625 10.9375 C-17.8625 10.2775 -21.1625 9.6175 -24.5625 8.9375 C-26.2841367 8.43973236 -27.99852708 7.91181297 -29.6875 7.3125 C-30.43257813 7.05210938 -31.17765625 6.79171875 -31.9453125 6.5234375 C-32.47898437 6.33007812 -33.01265625 6.13671875 -33.5625 5.9375 C-32.19930627 2.96744988 -30.67507186 0.56745658 -28.5 -1.875 C-27.70916016 -2.81279297 -27.70916016 -2.81279297 -26.90234375 -3.76953125 C-19.75691442 -7.71800722 -7.53796245 -2.07621298 0 0 Z " fill="#0286FF" transform="translate(153.5625,47.0625)"/>
<path d="M0 0 C13.10750164 2.95527225 26.05704027 6.39540287 39 10 C37.62572063 13.21993071 36.17625737 14.75716039 33.43139648 16.87329102 C29.08008847 21.13209152 29.14831622 25.21542501 29.05445862 31.0934906 C29.06871384 32.39166214 29.08296906 33.68983368 29.09765625 35.02734375 C29.08826044 36.38499842 29.07579601 37.74263499 29.06040955 39.10023499 C29.02830542 42.65321663 29.03757982 46.20490209 29.05578613 49.75793457 C29.06697886 53.39149937 29.03860734 57.02473843 29.01367188 60.65820312 C28.97062699 67.77230649 28.97133858 74.88579444 29 82 C27.33271266 81.71190255 25.6662033 81.41930221 24 81.125 C23.071875 80.96257812 22.14375 80.80015625 21.1875 80.6328125 C17.42979655 79.88679784 13.71665544 78.92916386 10 78 C9.67 57.87 9.34 37.74 9 17 C0.585 15.02 0.585 15.02 -8 13 C-8.66 12.34 -9.32 11.68 -10 11 C-9.36191406 10.37351562 -8.72382813 9.74703125 -8.06640625 9.1015625 C-7.24011719 8.28429688 -6.41382813 7.46703125 -5.5625 6.625 C-4.73878906 5.81289063 -3.91507813 5.00078125 -3.06640625 4.1640625 C-0.96565328 2.17651485 -0.96565328 2.17651485 0 0 Z " fill="#0286FF" transform="translate(170,52)"/>
<path d="M0 0 C0.66 0.33 1.32 0.66 2 1 C2.23241847 11.25750736 2.40974079 21.51438155 2.51812172 31.77399254 C2.57015977 36.53891836 2.64065155 41.30203398 2.75439453 46.06591797 C2.86361766 50.66967978 2.9229567 55.27170893 2.94877243 59.87666702 C2.96715092 61.62706392 3.00304331 63.37737329 3.05730057 65.1270256 C3.4736914 79.12004589 3.4736914 79.12004589 -0.25076294 83.87124634 C-2.05523263 85.45581145 -3.88090902 87.01658994 -5.7281189 88.55111694 C-10.08233058 93.24456468 -9.33893623 99.01250967 -9.1953125 105.1015625 C-9.20335907 106.41917572 -9.21140564 107.73678894 -9.21969604 109.09432983 C-9.24033249 112.56421396 -9.20186326 116.030906 -9.15020752 119.50036621 C-9.10804979 123.05366075 -9.12297882 126.60669258 -9.1328125 130.16015625 C-9.1437714 137.10771899 -9.08687741 144.05297788 -9 151 C-5.37 151.99 -1.74 152.98 2 154 C2.2485953 160.51013724 2.42929542 167.01747119 2.54931641 173.53125 C2.59937799 175.74300292 2.66745304 177.95442867 2.75439453 180.16503906 C3.49668465 199.53444484 3.49668465 199.53444484 -0.20019531 204.73925781 C-2.6835285 207.27263298 -4.91892523 209.25203969 -8 211 C-8.66 211 -9.32 211 -10 211 C-10.2337447 184.96578852 -10.41001376 158.93173461 -10.51812172 132.89668465 C-10.56965566 120.80771911 -10.63989674 108.71940606 -10.75439453 96.63085938 C-10.85415963 86.09273808 -10.91860402 75.55508937 -10.94088495 65.01650894 C-10.95390692 59.43763773 -10.98444297 53.86011836 -11.05730057 48.28168106 C-11.12537711 43.02654162 -11.14607697 37.77330548 -11.13107681 32.51776695 C-11.13381921 30.59324343 -11.15359726 28.66865375 -11.19205475 26.74451256 C-11.48275484 11.44442641 -11.48275484 11.44442641 -7.69742966 6.57183456 C-5.25215572 4.10217915 -2.84611767 1.98645467 0 0 Z " fill="#005CD7" transform="translate(289,164)"/>
<path d="M0 0 C0.94262695 0.34836914 1.88525391 0.69673828 2.85644531 1.05566406 C4.70202998 1.5449819 6.54804374 2.03309674 8.39996338 2.49786377 C11.77220048 3.34806565 15.12474057 4.27144011 18.48144531 5.18066406 C19.88110619 5.5572588 21.28084527 5.93356298 22.68066406 6.30957031 C26.07349812 7.2215916 29.46526122 8.1375241 32.85644531 9.05566406 C31.41725241 10.77181505 29.96661204 12.47407415 28.49047852 14.15869141 C27.1129656 15.75786597 25.80933125 17.42024486 24.52441406 19.09472656 C21.85644531 21.05566406 21.85644531 21.05566406 19.90576172 21.08203125 C17.59362777 20.68230115 15.41594612 20.10533606 13.16894531 19.43066406 C12.39744141 19.22570312 11.6259375 19.02074219 10.83105469 18.80957031 C8.07475123 18.06332221 5.41724979 17.3360663 2.85644531 16.05566406 C2.85644531 55.32566406 2.85644531 94.59566406 2.85644531 135.05566406 C2.52644531 135.05566406 2.19644531 135.05566406 1.85644531 135.05566406 C1.52644531 108.98566406 1.19644531 82.91566406 0.85644531 56.05566406 C-5.08355469 54.40566406 -11.02355469 52.75566406 -17.14355469 51.05566406 C-17.37445951 45.25225631 -17.57292646 39.46500531 -17.69287109 33.66064453 C-17.74288612 31.69134312 -17.8109271 29.72240792 -17.89794922 27.75439453 C-18.69189133 9.32559703 -18.69189133 9.32559703 -12.72949219 2.57910156 C-8.18774919 -0.9744731 -5.44453405 -1.80490033 0 0 Z " fill="#027BF4" transform="translate(217.1435546875,83.9443359375)"/>
<path d="M0 0 C1.5362277 0.37992728 3.05729713 0.82392595 4.5625 1.3125 C5.55507813 1.56773437 6.54765625 1.82296875 7.5703125 2.0859375 C10.25179238 2.77859599 12.90804151 3.52360486 15.5625 4.3125 C14.64802154 5.39768111 13.73079593 6.48054738 12.8125 7.5625 C12.30203125 8.16578125 11.7915625 8.7690625 11.265625 9.390625 C9.5625 11.3125 9.5625 11.3125 7.49017334 13.05426025 C5.00010435 15.97133788 5.04801439 17.56525829 5.01660156 21.36621094 C4.98702362 23.19765656 4.98702362 23.19765656 4.95684814 25.06610107 C4.95561951 26.37975647 4.95439087 27.69341187 4.953125 29.046875 C4.93814007 30.40881312 4.92141225 31.77073309 4.90301514 33.13262939 C4.8593633 36.70990848 4.83934777 40.28694246 4.82427979 43.86444092 C4.80470054 47.5178475 4.76273159 51.17098968 4.72265625 54.82421875 C4.64737793 61.98690805 4.59707256 69.14948629 4.5625 76.3125 C1.77014713 75.50229911 -1.02138621 74.6894488 -3.8125 73.875 C-4.6065625 73.64490234 -5.400625 73.41480469 -6.21875 73.17773438 C-6.97929687 72.95537109 -7.73984375 72.73300781 -8.5234375 72.50390625 C-9.2251709 72.29967041 -9.9269043 72.09543457 -10.64990234 71.88500977 C-12.4375 71.3125 -12.4375 71.3125 -14.4375 70.3125 C-14.67035996 62.66297097 -14.84745755 55.01381396 -14.95562172 47.36153603 C-15.00757048 43.80696081 -15.07787264 40.25482893 -15.19189453 36.70166016 C-15.32249897 32.60557232 -15.37005588 28.51200283 -15.4140625 24.4140625 C-15.46567535 23.1532486 -15.51728821 21.89243469 -15.57046509 20.59341431 C-15.57494303 13.47616764 -14.64895606 9.68633347 -9.65380859 4.45068359 C-6.45915301 1.51583266 -4.43618079 -0.29752471 0 0 Z " fill="#0185FE" transform="translate(294.4375,244.6875)"/>
<path d="M0 0 C0.33 0 0.66 0 1 0 C1 20.13 1 40.26 1 61 C-1.97 60.34 -4.94 59.68 -8 59 C-7.90847656 59.86367187 -7.81695313 60.72734375 -7.72265625 61.6171875 C-8.1738378 67.12033147 -11.43792245 70.46643777 -15.43359375 74.0234375 C-18.22915616 75.96768632 -20.04147406 76.24736635 -23.41015625 75.8515625 C-27.75339474 74.95697262 -31.85240058 73.55534978 -36 72 C-36.99 71.67 -37.98 71.34 -39 71 C-39 57.8 -39 44.6 -39 31 C-32.73 32.32 -26.46 33.64 -20 35 C-19.67 35.66 -19.34 36.32 -19 37 C-16.33487959 37.34547857 -13.66776116 37.67554256 -11 38 C-7.37 38.99 -3.74 39.98 0 41 C0 27.47 0 13.94 0 0 Z " fill="#0185FF" transform="translate(39,190)"/>
<path d="M0 0 C3.3 0.66 6.6 1.32 10 2 C9.67 26.75 9.34 51.5 9 77 C-8 73 -8 73 -10 72 C-10.20939422 64.20250531 -10.36887219 56.40568005 -10.46630955 48.60607243 C-10.51310011 44.9833539 -10.57645103 41.36257115 -10.67895508 37.7409668 C-10.77742922 34.23945342 -10.83069374 30.73978967 -10.85389519 27.2369976 C-10.87839202 25.2640711 -10.94854764 23.29187999 -11.01966858 21.32008362 C-11.02462494 12.42063134 -11.02462494 12.42063134 -7.97164917 8.18771362 C-5.74180224 5.96913427 -3.43259171 3.98866775 -1 2 C-0.67 1.34 -0.34 0.68 0 0 Z " fill="#0286FF" transform="translate(110,56)"/>
<path d="M0 0 C1.84765625 0.6328125 1.84765625 0.6328125 3.84765625 1.6328125 C3.51765625 19.4528125 3.18765625 37.2728125 2.84765625 55.6328125 C-6.15119827 54.50795568 -6.15119827 54.50795568 -10.71484375 53.1953125 C-11.65714844 52.9271875 -12.59945313 52.6590625 -13.5703125 52.3828125 C-14.42238281 52.1353125 -15.27445313 51.8878125 -16.15234375 51.6328125 C-17.26609375 51.3234375 -18.37984375 51.0140625 -19.52734375 50.6953125 C-25.08677325 49.06582454 -30.61854544 47.34704175 -36.15234375 45.6328125 C-34.79446939 42.68857531 -33.29067617 40.26191803 -31.15234375 37.8203125 C-30.63671875 37.19511719 -30.12109375 36.56992188 -29.58984375 35.92578125 C-25.58614028 33.80202188 -21.50573386 34.92922906 -17.15234375 35.6328125 C-17.16918213 34.86203369 -17.18602051 34.09125488 -17.20336914 33.29711914 C-17.25402493 29.76208782 -17.23494111 26.23062149 -17.21484375 22.6953125 C-17.24255859 21.48294922 -17.27027344 20.27058594 -17.29882812 19.02148438 C-17.20774512 12.29955858 -16.61798686 8.24892061 -11.89453125 3.26171875 C-7.91242717 -0.4018337 -5.2553781 -1.1678618 0 0 Z " fill="#0286FF" transform="translate(36.15234375,175.3671875)"/>
<path d="M0 0 C6.78528053 0.6401208 12.20107517 2.14574777 19 4 C19 24.13 19 44.26 19 65 C12.73 63.35 6.46 61.7 0 60 C-0.16796223 54.50892712 -0.33088754 49.01811324 -0.48217773 43.52661133 C-0.53476579 41.66780752 -0.59000216 39.80907629 -0.64819336 37.95043945 C-1.04390758 25.23596935 -0.87558957 12.6919401 0 0 Z " fill="#0286FE" transform="translate(200,154)"/>
<path d="M0 0 C6.66666667 1.66666667 13.33333333 3.33333333 20 5 C20 18.2 20 31.4 20 45 C13 44 13 44 0 40 C0 26.8 0 13.6 0 0 Z " fill="#010203" transform="translate(60,136)"/>
<path d="M0 0 C4.77999512 0.57199146 9.28987736 1.19631904 13.9375 2.5 C14.87464844 2.7578125 15.81179687 3.015625 16.77734375 3.28125 C19 4 19 4 20 5 C20.08868299 7.95705321 20.11520296 10.89065056 20.09765625 13.84765625 C20.0962413 14.7340831 20.09482635 15.62050995 20.09336853 16.53379822 C20.08775215 19.37673254 20.07519691 22.21958931 20.0625 25.0625 C20.05748711 26.98502491 20.05292384 28.90755104 20.04882812 30.83007812 C20.03777741 35.55341549 20.02050183 40.27669458 20 45 C16.85271313 44.19306037 13.70744322 43.37852172 10.5625 42.5625 C9.66466797 42.33240234 8.76683594 42.10230469 7.84179688 41.86523438 C6.98779297 41.64287109 6.13378906 41.42050781 5.25390625 41.19140625 C4.46314697 40.98717041 3.6723877 40.78293457 2.85766602 40.57250977 C1 40 1 40 0 39 C-0.08865208 36.1156618 -0.11521296 33.25537842 -0.09765625 30.37109375 C-0.0962413 29.50686295 -0.09482635 28.64263214 -0.09336853 27.75221252 C-0.08775239 24.98060708 -0.07519719 22.2090812 -0.0625 19.4375 C-0.05748708 17.5631522 -0.05292381 15.68880315 -0.04882812 13.81445312 C-0.03777772 9.20960456 -0.0205023 4.60481579 0 0 Z " fill="#010202" transform="translate(240,185)"/>
<path d="M0 0 C7 1 7 1 19 4 C19 17.2 19 30.4 19 44 C11 43 11 43 0 40 C0 26.8 0 13.6 0 0 Z " fill="#0185FF" transform="translate(80,83)"/>
<path d="M0 0 C0.33 0 0.66 0 1 0 C1 46.2 1 92.4 1 140 C4.3 140.66 7.6 141.32 11 142 C12 143 12 143 12.34375 146.21875 C11.81852465 151.99622883 8.83262453 154.2753255 4.703125 158.0703125 C2 160 2 160 -1.75 160.375 C-3.18267556 159.96946993 -4.5972555 159.4993213 -6 159 C-8.68538542 158.25880005 -8.68538542 158.25880005 -11.37402344 157.52954102 C-14.26059144 156.72569083 -17.12844801 155.85594338 -20 155 C-20 148.07 -20 141.14 -20 134 C-19.67 134.66 -19.34 135.32 -19 136 C-16.33487959 136.34547857 -13.66776116 136.67554256 -11 137 C-7.37 137.99 -3.74 138.98 0 140 C0 93.8 0 47.6 0 0 Z " fill="#0082FC" transform="translate(259,230)"/>
<path d="M0 0 C0.29547355 3.12292819 0.4694725 6.24223169 0.625 9.375 C0.70878906 10.24511719 0.79257813 11.11523438 0.87890625 12.01171875 C0.98821659 14.96309784 0.88758293 17.17145642 0 20 C-2.23095703 22.13525391 -2.23095703 22.13525391 -4.96875 24.3125 C-9.55567828 28.44358447 -10.67703756 31.4373234 -11.11074829 37.38491821 C-11.25535713 42.13738773 -11.21699924 46.87197029 -11.125 51.625 C-11.12305551 53.60286534 -11.12561912 55.58074053 -11.1328125 57.55859375 C-11.14059213 62.3740803 -11.08712314 67.18533351 -11 72 C-10.29875 72.10957031 -9.5975 72.21914062 -8.875 72.33203125 C-7.92625 72.49058594 -6.9775 72.64914063 -6 72.8125 C-4.6078125 73.03873047 -4.6078125 73.03873047 -3.1875 73.26953125 C0.64419622 74.1476283 4.31926745 75.61972529 8 77 C8 82.94 8 88.88 8 95 C1.18372958 94.1479662 -4.47180279 92.8768567 -11 91 C-11 97.27 -11 103.54 -11 110 C-11.33 110 -11.66 110 -12 110 C-12.23215312 97.1347162 -12.40961137 84.26993414 -12.51812172 71.4029789 C-12.57021422 65.42756563 -12.64081703 59.45358987 -12.75439453 53.47900391 C-12.86340631 47.70818431 -12.92291585 41.9387432 -12.94877243 36.16697311 C-12.96718716 33.97005901 -13.00314947 31.77321668 -13.05730057 29.57689285 C-13.48533685 11.48941951 -13.48533685 11.48941951 -9.77752686 6.36444092 C-3.59335728 0 -3.59335728 0 0 0 Z " fill="#0084FE" transform="translate(211,63)"/>
<path d="M0 0 C0.81597656 0.32871094 1.63195312 0.65742188 2.47265625 0.99609375 C4.17980911 1.54146948 5.8880866 2.08334179 7.59765625 2.62109375 C8.89149293 3.07326504 10.18405572 3.5292095 11.47265625 3.99609375 C10.53675121 5.10161265 9.59885767 6.20544828 8.66015625 7.30859375 C8.13808594 7.92347656 7.61601562 8.53835937 7.078125 9.171875 C5.47265625 10.99609375 5.47265625 10.99609375 3.90429688 12.29101562 C1.97101106 14.59355112 2.04708348 16.12091169 1.9609375 19.1015625 C1.92548828 20.08447266 1.89003906 21.06738281 1.85351562 22.08007812 C1.83095703 23.10423828 1.80839844 24.12839844 1.78515625 25.18359375 C1.75099609 26.21935547 1.71683594 27.25511719 1.68164062 28.32226562 C1.59912983 30.88010035 1.52999053 33.43759098 1.47265625 35.99609375 C-1.31974348 35.35330366 -4.11124959 34.7070071 -6.90234375 34.05859375 C-7.69640625 33.87619141 -8.49046875 33.69378906 -9.30859375 33.50585938 C-10.06914062 33.32861328 -10.8296875 33.15136719 -11.61328125 32.96875 C-12.31501465 32.80640869 -13.01674805 32.64406738 -13.73974609 32.47680664 C-15.52734375 31.99609375 -15.52734375 31.99609375 -17.52734375 30.99609375 C-19.23136909 11.01443048 -19.23136909 11.01443048 -15.65234375 5.23828125 C-10.81506306 -0.06761101 -6.98190437 -2.31254836 0 0 Z " fill="#0286FE" transform="translate(277.52734375,160.00390625)"/>
<path d="M0 0 C1.17949219 0.38285156 1.17949219 0.38285156 2.3828125 0.7734375 C3.37539063 1.02867187 4.36796875 1.28390625 5.390625 1.546875 C8.07210488 2.23953349 10.72835401 2.98454236 13.3828125 3.7734375 C12.46833404 4.85861861 11.55110843 5.94148488 10.6328125 7.0234375 C10.12234375 7.62671875 9.611875 8.23 9.0859375 8.8515625 C7.3828125 10.7734375 7.3828125 10.7734375 5.2265625 12.3359375 C2.22320527 16.30647757 2.70379974 20.67694514 2.6328125 25.5234375 C2.58833984 26.99876953 2.58833984 26.99876953 2.54296875 28.50390625 C2.47238839 30.92716526 2.41963549 33.34946904 2.3828125 35.7734375 C-4.16568063 34.61138757 -10.36256894 33.03960365 -16.6171875 30.7734375 C-18.32586399 11.7256377 -18.32586399 11.7256377 -14.70703125 6.1171875 C-10.33879482 1.41812636 -6.50461966 -1.60866938 0 0 Z " fill="#0286FF" transform="translate(296.6171875,245.2265625)"/>
<path d="M0 0 C1.06927734 0.38285156 1.06927734 0.38285156 2.16015625 0.7734375 C4.15891663 1.29900796 6.15897329 1.81966808 8.16015625 2.3359375 C9.82837896 2.80965835 11.49561837 3.28692735 13.16015625 3.7734375 C11.78307505 6.97797425 10.27473523 8.65094915 7.59375 10.83984375 C3.73746771 14.58414688 3.31761056 17.59906096 3.18945312 22.85351562 C3.20041016 23.79646484 3.21136719 24.73941406 3.22265625 25.7109375 C3.20654297 26.68095703 3.19042969 27.65097656 3.17382812 28.65039062 C3.1387177 31.02619574 3.13493271 33.39763582 3.16015625 35.7734375 C-1.41339106 35.17939542 -5.81279868 34.36469634 -10.27734375 33.2109375 C-11.32792969 32.94152344 -12.37851563 32.67210937 -13.4609375 32.39453125 C-14.24597656 32.18957031 -15.03101563 31.98460937 -15.83984375 31.7734375 C-17.55293186 11.68550283 -17.55293186 11.68550283 -13.89453125 6.05078125 C-9.96165686 1.87135051 -6.11317134 -1.73227442 0 0 Z " fill="#0286FF" transform="translate(255.83984375,114.2265625)"/>
<path d="M0 0 C0.33 0 0.66 0 1 0 C1 20.13 1 40.26 1 61 C-1.97 60.34 -4.94 59.68 -8 59 C-7.88785156 59.86882812 -7.77570312 60.73765625 -7.66015625 61.6328125 C-8.11064776 66.09630312 -10.2756012 67.9912856 -13.4375 70.875 C-13.95376953 71.37257813 -14.47003906 71.87015625 -15.00195312 72.3828125 C-18.8029812 76 -18.8029812 76 -20 76 C-20 62.47 -20 48.94 -20 35 C-19.67 35.66 -19.34 36.32 -19 37 C-16.33487959 37.34547857 -13.66776116 37.67554256 -11 38 C-7.37 38.99 -3.74 39.98 0 41 C0 27.47 0 13.94 0 0 Z " fill="#007EF9" transform="translate(39,190)"/>
<path d="M0 0 C3.3 0.66 6.6 1.32 10 2 C10.19847988 13.68825948 9.59079499 25.33022763 9 37 C6.20760027 36.35720991 3.41609416 35.71091335 0.625 35.0625 C-0.1690625 34.88009766 -0.963125 34.69769531 -1.78125 34.50976562 C-2.54179688 34.33251953 -3.30234375 34.15527344 -4.0859375 33.97265625 C-4.7876709 33.81031494 -5.4894043 33.64797363 -6.21240234 33.48071289 C-8 33 -8 33 -10 32 C-11.48013322 13.50212997 -11.48013322 13.50212997 -8.03125 7.671875 C-5.79274018 5.53253966 -3.54352676 3.75498539 -1 2 C-0.67 1.34 -0.34 0.68 0 0 Z " fill="#0286FF" transform="translate(110,56)"/>
<path d="M0 0 C0 0.99 0 1.98 0 3 C-1.28580923 4.04417082 -2.60428585 5.04832674 -3.9375 6.03125 C-8.75135433 10.70926364 -8.92072072 15.40336762 -9.04847717 21.75318909 C-9.05916959 24.33623431 -9.03021258 26.917136 -9 29.5 C-9.0075255 31.30462387 -9.01856561 33.1092362 -9.03295898 34.91381836 C-9.06130034 39.6422962 -9.04216433 44.36941412 -9.01287842 49.09783936 C-8.99143025 53.93120036 -9.01524184 58.76431999 -9.03515625 63.59765625 C-9.06753958 73.0654104 -9.04972909 82.53234577 -9 92 C-7.19402344 92.41572266 -7.19402344 92.41572266 -5.3515625 92.83984375 C-3.77601093 93.20559679 -2.20049177 93.57148945 -0.625 93.9375 C0.1690625 94.11990234 0.963125 94.30230469 1.78125 94.49023438 C2.92207031 94.75610352 2.92207031 94.75610352 4.0859375 95.02734375 C5.1385376 95.27085571 5.1385376 95.27085571 6.21240234 95.51928711 C8 96 8 96 10 97 C10 70.27 10 43.54 10 16 C10.33 16 10.66 16 11 16 C11 49 11 82 11 116 C-0.25 113.75 -0.25 113.75 -5.125 112.375 C-6.05570313 112.11460937 -6.98640625 111.85421875 -7.9453125 111.5859375 C-8.62335938 111.39257812 -9.30140625 111.19921875 -10 111 C-10.23214264 98.00432844 -10.40960623 85.00915347 -10.51812172 72.01182747 C-10.57021639 65.97588774 -10.64082355 59.94137086 -10.75439453 53.90625 C-10.86339798 48.07707714 -10.92291422 42.24926881 -10.94877243 36.41915512 C-10.9671886 34.19991455 -11.00315368 31.98074512 -11.05730057 29.76208878 C-11.48671815 11.43049375 -11.48671815 11.43049375 -7.70721436 6.35101318 C-5.26069093 3.88269733 -2.9225297 1.86825678 0 0 Z " fill="#0176EF" transform="translate(169,52)"/>
<path d="M0 0 C7.4473877 1.92089844 7.4473877 1.92089844 10.17089844 2.6328125 C13.58893315 3.50066615 16.4518869 4 20 4 C20 37 20 70 20 104 C19.67 104 19.34 104 19 104 C19 77.6 19 51.2 19 24 C10.585 22.02 10.585 22.02 2 20 C1.34 19.67 0.68 19.34 0 19 C0 58.6 0 98.2 0 139 C-0.33 139 -0.66 139 -1 139 C-1.02348571 123.53443621 -1.04105545 108.06887377 -1.05181217 92.60329628 C-1.05694212 85.42042058 -1.06392095 78.23755603 -1.07543945 71.0546875 C-1.08548816 64.78531841 -1.09187735 58.51595741 -1.09408849 52.24658048 C-1.09537852 48.93499144 -1.09890016 45.62343057 -1.10573006 42.31184769 C-1.13370735 28.17189672 -1.03131846 14.1066474 0 0 Z " fill="#0075EF" transform="translate(120,53)"/>
<path d="M0 0 C2.04335961 0.55661182 4.08518855 1.11860841 6.12696838 1.6809845 C7.53109925 2.06245545 8.93539508 2.44331974 10.33985901 2.82356262 C13.74999213 3.74821777 17.15782058 4.68105911 20.56446838 5.6184845 C20.56446838 9.60105722 19.26016031 10.50886536 16.56446838 13.3684845 C12.17621889 17.57901672 12.17621889 17.57901672 7.68946838 17.8684845 C6.30068132 17.50037226 4.92601324 17.07721287 3.56446838 16.6184845 C1.64825597 16.11674643 -0.26843365 15.61682826 -2.18553162 15.1184845 C-3.93553162 14.6184845 -5.68553162 14.1184845 -7.43553162 13.6184845 C-8.76819796 13.28249447 -10.10163164 12.94954301 -11.43553162 12.6184845 C-14.0197004 11.93395468 -16.60303739 11.24676509 -19.18553162 10.5559845 C-19.88291443 10.36971497 -20.58029724 10.18344543 -21.29881287 9.99153137 C-23.01112808 9.5341321 -24.72334012 9.07634665 -26.43553162 8.6184845 C-26.43553162 4.06755526 -25.98322125 3.48902296 -22.99803162 0.3059845 C-22.35994568 -0.41202332 -21.72185974 -1.13003113 -21.06443787 -1.86979675 C-14.89516935 -5.41735532 -6.49367688 -1.73846115 0 0 Z " fill="#26A9FE" transform="translate(147.43553161621094,45.38151550292969)"/>
<path d="M0 0 C13.10750164 2.95527225 26.05704027 6.39540287 39 10 C36.58766915 14.97604411 33.74654637 19.00258679 29 22 C25.04343655 22.2618314 21.72892186 21.25736439 18 20 C17.30519531 19.77183594 16.61039063 19.54367188 15.89453125 19.30859375 C14.50436166 18.83803344 13.11911092 18.35276938 11.73828125 17.85546875 C7.15582103 16.42385849 2.45589523 15.44931758 -2.23681641 14.44580078 C-7.7868433 13.2131567 -7.7868433 13.2131567 -10 11 C-9.36191406 10.37351562 -8.72382813 9.74703125 -8.06640625 9.1015625 C-7.24011719 8.28429688 -6.41382813 7.46703125 -5.5625 6.625 C-4.73878906 5.81289063 -3.91507813 5.00078125 -3.06640625 4.1640625 C-0.96565328 2.17651485 -0.96565328 2.17651485 0 0 Z " fill="#26A9FE" transform="translate(170,52)"/>
<path d="M0 0 C0.24903175 5.51317971 0.4294749 11.02302444 0.54931641 16.54052734 C0.59930959 18.4128527 0.66733455 20.28479349 0.75439453 22.15576172 C1.46986506 37.93819979 1.46986506 37.93819979 -2.23095703 43.12939453 C-4.01631723 44.7364416 -5.84562199 46.29633687 -7.72021484 47.79833984 C-10.44765964 50.43231898 -10.83145212 51.8418588 -11.1953125 55.5703125 C-11.22139035 57.42183969 -11.19776385 59.27471936 -11.125 61.125 C-11.12757813 62.08148438 -11.13015625 63.03796875 -11.1328125 64.0234375 C-11.1328125 66.35311886 -11.08802071 68.67226982 -11 71 C-11.33 71 -11.66 71 -12 71 C-12.23283623 63.21989087 -12.40994212 55.44061361 -12.51812172 47.6578846 C-12.57007628 44.04279727 -12.64039105 40.43011132 -12.75439453 36.81640625 C-12.86395153 33.32132722 -12.92301919 29.82853966 -12.94877243 26.33187485 C-12.97594597 24.36493924 -13.05387588 22.39891288 -13.13296509 20.43338013 C-13.13746441 13.16289433 -12.2284169 9.40185735 -7.06396484 4.10498047 C-2.4595293 0 -2.4595293 0 0 0 Z " fill="#005CD7" transform="translate(311,250)"/>
<path d="M0 0 C0.24903175 5.51317971 0.4294749 11.02302444 0.54931641 16.54052734 C0.59930959 18.4128527 0.66733455 20.28479349 0.75439453 22.15576172 C1.46986506 37.93819979 1.46986506 37.93819979 -2.23095703 43.12939453 C-4.01631723 44.7364416 -5.84562199 46.29633687 -7.72021484 47.79833984 C-10.44765964 50.43231898 -10.83145212 51.8418588 -11.1953125 55.5703125 C-11.22139035 57.42183969 -11.19776385 59.27471936 -11.125 61.125 C-11.12757813 62.08148438 -11.13015625 63.03796875 -11.1328125 64.0234375 C-11.1328125 66.35311886 -11.08802071 68.67226982 -11 71 C-11.33 71 -11.66 71 -12 71 C-12.23283623 63.21989087 -12.40994212 55.44061361 -12.51812172 47.6578846 C-12.57007628 44.04279727 -12.64039105 40.43011132 -12.75439453 36.81640625 C-12.86395153 33.32132722 -12.92301919 29.82853966 -12.94877243 26.33187485 C-12.97594597 24.36493924 -13.05387588 22.39891288 -13.13296509 20.43338013 C-13.13746441 13.16289433 -12.2284169 9.40185735 -7.06396484 4.10498047 C-2.4595293 0 -2.4595293 0 0 0 Z " fill="#005CD7" transform="translate(271,119)"/>
<path d="M0 0 C0.24895992 5.6556033 0.42944573 11.30795951 0.54931641 16.96777344 C0.59932078 18.88858645 0.66735394 20.80902429 0.75439453 22.72851562 C1.49644404 39.52502445 1.49644404 39.52502445 -2.20019531 44.55175781 C-4.68002398 47.08155784 -6.98132977 49.15258631 -10 51 C-10.66 51 -11.32 51 -12 51 C-12.24895992 45.3443967 -12.42944573 39.69204049 -12.54931641 34.03222656 C-12.59932078 32.11141355 -12.66735394 30.19097571 -12.75439453 28.27148438 C-13.49644404 11.47497555 -13.49644404 11.47497555 -9.79980469 6.44824219 C-3.47893519 0 -3.47893519 0 0 0 Z " fill="#005CD7" transform="translate(331,295)"/>
<path d="M0 0 C4.63815614 0.66259373 8.87553423 1.36663331 13.375 2.5 C14.41398437 2.7578125 15.45296875 3.015625 16.5234375 3.28125 C19 4 19 4 20 5 C20.08669432 6.4887186 20.10703494 7.981445 20.09765625 9.47265625 C20.09443359 10.37177734 20.09121094 11.27089844 20.08789062 12.19726562 C20.07951172 13.14279297 20.07113281 14.08832031 20.0625 15.0625 C20.05798828 16.01189453 20.05347656 16.96128906 20.04882812 17.93945312 C20.0370011 20.29303065 20.02052025 22.64648477 20 25 C18.35269316 24.73827835 16.70722165 24.46500448 15.0625 24.1875 C14.14597656 24.03667969 13.22945312 23.88585937 12.28515625 23.73046875 C8.10749843 22.8015484 4.06006726 21.35335575 0 20 C0 13.4 0 6.8 0 0 Z " fill="#0284FD" transform="translate(80,322)"/>
<path d="M0 0 C6.56595772 0.93799396 12.59477919 2.34471822 19 4 C19 11.26 19 18.52 19 26 C12.73 24.35 6.46 22.7 0 21 C0 14.07 0 7.14 0 0 Z " fill="#F9E604" transform="translate(140,158)"/>
<path d="M0 0 C6.81627042 0.8520338 12.47180279 2.1231433 19 4 C19 10.6 19 17.2 19 24 C11.8273651 24 6.84886501 22.84688495 0 21 C0 14.07 0 7.14 0 0 Z " fill="#F9E604" transform="translate(180,169)"/>
<path d="M0 0 C4.145625 0.9590625 4.145625 0.9590625 8.375 1.9375 C9.67896729 2.23708618 9.67896729 2.23708618 11.00927734 2.54272461 C11.6945752 2.70264893 12.37987305 2.86257324 13.0859375 3.02734375 C13.7876709 3.18968506 14.4894043 3.35202637 15.21240234 3.51928711 C17 4 17 4 19 5 C19 11.93 19 18.86 19 26 C16.23625 25.195625 13.4725 24.39125 10.625 23.5625 C9.32103271 23.18460327 9.32103271 23.18460327 7.99072266 22.79907227 C7.3054248 22.59854248 6.62012695 22.3980127 5.9140625 22.19140625 C5.2123291 21.98717041 4.5105957 21.78293457 3.78759766 21.57250977 C2 21 2 21 0 20 C0 13.4 0 6.8 0 0 Z " fill="#0286FE" transform="translate(220,359)"/>
<path d="M0 0 C9.405 2.475 9.405 2.475 19 5 C19 11.6 19 18.2 19 25 C5.58247969 22.54327093 5.58247969 22.54327093 0 20 C-1.17829199 17.64341603 -1.04414372 16.47426764 -0.87890625 13.8671875 C-0.83580322 13.14128418 -0.7927002 12.41538086 -0.74829102 11.66748047 C-0.68697998 10.74596191 -0.62566895 9.82444336 -0.5625 8.875 C-0.2840625 4.481875 -0.2840625 4.481875 0 0 Z " fill="#0285FE" transform="translate(60,97)"/>
<path d="M0 0 C1.65 0.268125 3.3 0.53625 5 0.8125 C6.3921875 1.03873047 6.3921875 1.03873047 7.8125 1.26953125 C11.64419622 2.1476283 15.31926745 3.61972529 19 5 C19 11.6 19 18.2 19 25 C12.73 23.35 6.46 21.7 0 20 C0 13.4 0 6.8 0 0 Z " fill="#0185FE" transform="translate(200,115)"/>
<path d="M0 0 C0.29547355 3.12292819 0.4694725 6.24223169 0.625 9.375 C0.70878906 10.24511719 0.79257813 11.11523438 0.87890625 12.01171875 C0.98856983 14.97263553 0.82585345 17.1420943 0 20 C-2.24084473 22.21435547 -2.24084473 22.21435547 -4.98632812 24.453125 C-9.1111824 28.41967537 -10.7306834 30.91510565 -11.22705078 36.64306641 C-11.26694395 39.1289342 -11.25393841 41.61606594 -11.1953125 44.1015625 C-11.20335907 45.41917572 -11.21140564 46.73678894 -11.21969604 48.09432983 C-11.24033249 51.56421396 -11.20186326 55.030906 -11.15020752 58.50036621 C-11.10804979 62.05366075 -11.12297882 65.60669258 -11.1328125 69.16015625 C-11.14377112 76.10754515 -11.09216322 83.0532331 -11 90 C-10.34 90.33 -9.68 90.66 -9 91 C-9.66 91 -10.32 91 -11 91 C-10.94670532 92.66832886 -10.94670532 92.66832886 -10.89233398 94.37036133 C-10.75950758 98.59540339 -10.63726536 102.8207028 -10.51782227 107.04614258 C-10.46525938 108.85644665 -10.41002674 110.66667567 -10.35180664 112.47680664 C-9.94986378 125.04888043 -10.13865413 137.44985831 -11 150 C-11.33 150 -11.66 150 -12 150 C-12.23398304 131.91923852 -12.41012788 113.83887187 -12.51812172 95.75692177 C-12.56960664 87.36038111 -12.63974926 78.96478309 -12.75439453 70.56884766 C-12.85431542 63.24772471 -12.91863974 55.92728459 -12.94088495 48.60549867 C-12.95388217 44.73104867 -12.98424582 40.8585514 -13.05730057 36.98472977 C-13.12563089 33.33152581 -13.14603054 29.68106123 -13.13107681 26.0272789 C-13.13510254 24.06075655 -13.18869065 22.09452701 -13.24420166 20.12878418 C-13.16170932 12.97733249 -12.12124088 9.3310346 -7.05404663 4.12582397 C-2.45096523 0 -2.45096523 0 0 0 Z " fill="#005CD6" transform="translate(251,94)"/>
<path d="M0 0 C6.81627042 0.8520338 12.47180279 2.1231433 19 4 C19 10.6 19 17.2 19 24 C16.23625 23.360625 13.4725 22.72125 10.625 22.0625 C9.75568848 21.86277588 8.88637695 21.66305176 7.99072266 21.45727539 C6.96277588 21.21738892 6.96277588 21.21738892 5.9140625 20.97265625 C5.2123291 20.81031494 4.5105957 20.64797363 3.78759766 20.48071289 C2 20 2 20 0 19 C0 12.73 0 6.46 0 0 Z " fill="#0084FF" transform="translate(300,322)"/>
<path d="M0 0 C0.29547355 3.12292819 0.4694725 6.24223169 0.625 9.375 C0.70878906 10.24511719 0.79257813 11.11523438 0.87890625 12.01171875 C0.98850128 14.97078461 0.82993268 17.14557458 0 20 C-2.24084473 22.06054688 -2.24084473 22.06054688 -4.98632812 24.1796875 C-10.50709998 29.4984147 -11.11669001 33.55490081 -11.28050995 40.86425781 C-11.2855762 43.40303721 -11.24131374 45.93823792 -11.1953125 48.4765625 C-11.1991054 50.25590441 -11.20730497 52.03524187 -11.21969604 53.81454468 C-11.24039533 58.46779245 -11.20175109 63.11867302 -11.15020752 67.77160645 C-11.10815882 72.53135674 -11.12296811 77.29090547 -11.1328125 82.05078125 C-11.14379275 91.36785298 -11.09200265 100.68341533 -11 110 C-11.33 110 -11.66 110 -12 110 C-12.23215312 97.1347162 -12.40961137 84.26993414 -12.51812172 71.4029789 C-12.57021422 65.42756563 -12.64081703 59.45358987 -12.75439453 53.47900391 C-12.86340631 47.70818431 -12.92291585 41.9387432 -12.94877243 36.16697311 C-12.96718716 33.97005901 -13.00314947 31.77321668 -13.05730057 29.57689285 C-13.48533685 11.48941951 -13.48533685 11.48941951 -9.77752686 6.36444092 C-3.59335728 0 -3.59335728 0 0 0 Z " fill="#005CD7" transform="translate(211,63)"/>
<path d="M0 0 C0.33 0 0.66 0 1 0 C1 46.2 1 92.4 1 140 C4.3 140.66 7.6 141.32 11 142 C12 143 12 143 12.3671875 146.22265625 C11.90654789 150.96136376 10.56284121 152.2382625 7.125 155.4375 C6.22007812 156.30246094 5.31515625 157.16742188 4.3828125 158.05859375 C2 160 2 160 0 160 C0 107.2 0 54.4 0 0 Z " fill="#005CD7" transform="translate(259,230)"/>
<path d="M0 0 C1.40837723 0.34858039 2.80375234 0.75129233 4.1875 1.1875 C5.16074219 1.44015625 6.13398437 1.6928125 7.13671875 1.953125 C9.83379876 2.65761197 12.51204763 3.40552035 15.1875 4.1875 C15.1875 8.17007272 13.88319193 9.07788086 11.1875 11.9375 C6.79925051 16.14803223 6.79925051 16.14803223 2.3125 16.4375 C0.92375489 16.06922954 -0.45070045 15.64547173 -1.8125 15.1875 C-3.81208166 14.66506288 -5.81209769 14.14428602 -7.8125 13.625 C-9.48072271 13.15127915 -11.14796212 12.67401015 -12.8125 12.1875 C-12.0597464 7.49074159 -9.39646967 4.96861823 -6.046875 1.7734375 C-3.8125 0.1875 -3.8125 0.1875 0 0 Z " fill="#27ABFE" transform="translate(92.8125,50.8125)"/>
<path d="M0 0 C4.58687258 0.99474345 9.09577717 2.22571929 13.59375 3.5625 C12.15393504 5.27939275 10.70262986 6.9814939 9.22265625 8.6640625 C7.85575616 10.2571403 6.58659061 11.93335584 5.34375 13.625 C2.59375 15.5625 2.59375 15.5625 0.375 15.52734375 C-5.36376396 14.4734658 -10.92795408 12.54738983 -16.40625 10.5625 C-14.94242297 8.82542526 -13.46956098 7.09938864 -11.97265625 5.390625 C-10.30690135 3.49653439 -10.30690135 3.49653439 -8.59375 1.0625 C-5.5503333 -1.02441431 -3.55927431 -0.56948389 0 0 Z " fill="#27AAFE" transform="translate(296.40625,245.4375)"/>
<path d="M0 0 C1.70266968 0.5147606 3.39103815 1.07899546 5.0625 1.6875 C6.36767578 2.09935547 6.36767578 2.09935547 7.69921875 2.51953125 C9.83787137 3.20107989 11.95239074 3.92296766 14.0625 4.6875 C13.16948344 5.75236855 12.2729053 6.81425041 11.375 7.875 C10.87613281 8.46667969 10.37726563 9.05835938 9.86328125 9.66796875 C7.69506655 12.09956744 5.36617393 14.38382607 3.0625 16.6875 C-2.8775 15.0375 -8.8175 13.3875 -14.9375 11.6875 C-11.83484722 5.48219444 -7.79398328 -1.51988754 0 0 Z " fill="#27AAFE" transform="translate(274.9375,159.3125)"/>
<path d="M0 0 C2.77270429 0.61748874 5.54295598 1.24362456 8.3125 1.875 C9.49102539 2.13603516 9.49102539 2.13603516 10.69335938 2.40234375 C11.45068359 2.57636719 12.20800781 2.75039062 12.98828125 2.9296875 C13.68477783 3.08679199 14.38127441 3.24389648 15.09887695 3.40576172 C17 4 17 4 20 6 C16.97154518 10.26469232 13.82223119 14.68929526 9 17 C3.12226733 17.4377035 -2.64776196 15.21083587 -8 13 C-8.66 12.34 -9.32 11.68 -10 11 C-9.36191406 10.37351562 -8.72382813 9.74703125 -8.06640625 9.1015625 C-7.24011719 8.28429687 -6.41382813 7.46703125 -5.5625 6.625 C-4.73878906 5.81289062 -3.91507813 5.00078125 -3.06640625 4.1640625 C-0.96565328 2.17651485 -0.96565328 2.17651485 0 0 Z " fill="#27AAFE" transform="translate(230,88)"/>
<path d="M0 0 C1.85625 0.5878125 1.85625 0.5878125 3.75 1.1875 C5.89394094 1.71606909 8.03992516 2.23639476 10.1875 2.75 C12.04255559 3.22571364 13.89703165 3.70372009 15.75 4.1875 C13.51974077 9.17742343 10.1781319 12.99421128 5.75 16.1875 C2.32605461 16.35589076 0.87092434 16.17132904 -2.25 15.1875 C-3.22324219 14.93484375 -4.19648438 14.6821875 -5.19921875 14.421875 C-7.89629876 13.71738803 -10.57454763 12.96947965 -13.25 12.1875 C-10.77425655 6.62021904 -6.40387702 0.36945444 0 0 Z " fill="#27ABFE" transform="translate(313.25,289.8125)"/>
<path d="M0 0 C1.40837723 0.34858039 2.80375234 0.75129233 4.1875 1.1875 C5.16074219 1.44015625 6.13398438 1.6928125 7.13671875 1.953125 C9.83379876 2.65761197 12.51204763 3.40552035 15.1875 4.1875 C12.96862051 9.17716301 9.55251682 12.9357627 5.1875 16.1875 C1.9375 16.375 1.9375 16.375 -1.8125 15.1875 C-3.95644094 14.65893091 -6.10242516 14.13860524 -8.25 13.625 C-10.10505559 13.14928636 -11.95953165 12.67127991 -13.8125 12.1875 C-11.12636825 6.17761936 -6.86074171 0.33741353 0 0 Z " fill="#27ABFE" transform="translate(253.8125,113.8125)"/>
<path d="M0 0 C1.70266968 0.5147606 3.39103815 1.07899546 5.0625 1.6875 C6.36767578 2.09935547 6.36767578 2.09935547 7.69921875 2.51953125 C9.83787137 3.20107989 11.95239074 3.92296766 14.0625 4.6875 C13.16948344 5.75236855 12.2729053 6.81425041 11.375 7.875 C10.87613281 8.46667969 10.37726563 9.05835937 9.86328125 9.66796875 C7.69506655 12.09956744 5.36617393 14.38382607 3.0625 16.6875 C-2.8775 15.0375 -8.8175 13.3875 -14.9375 11.6875 C-11.83484722 5.48219444 -7.79398328 -1.51988754 0 0 Z " fill="#27ABFE" transform="translate(214.9375,83.3125)"/>
<path d="M0 0 C2.27919049 0.4725151 4.0424935 1.02124675 6.125 2.0625 C6.125 6.3525 6.125 10.6425 6.125 15.0625 C1.04406532 16.07868694 -1.91055972 15.53751153 -6.6875 14.125 C-7.38037109 13.92970703 -8.07324219 13.73441406 -8.78710938 13.53320312 C-10.48589961 13.05285554 -12.18086595 12.55901979 -13.875 12.0625 C-13.11586572 7.3917155 -10.51270311 4.85895249 -7.2109375 1.640625 C-4.47984245 -0.20446263 -3.23626129 -0.35609348 0 0 Z " fill="#27ABFE" transform="translate(33.875,174.9375)"/>
<path d="M0 0 C2.00390625 0.59765625 2.00390625 0.59765625 3.00390625 1.59765625 C3.07649571 3.78405078 3.08764408 5.97266014 3.06640625 8.16015625 C3.05738281 9.35769531 3.04835938 10.55523437 3.0390625 11.7890625 C3.02746094 12.71589844 3.01585938 13.64273438 3.00390625 14.59765625 C-1.08695827 16.27406723 -4.71120393 14.83858815 -8.74609375 13.66015625 C-9.44347656 13.46486328 -10.14085938 13.26957031 -10.859375 13.06835938 C-12.57408348 12.58683165 -14.28544252 12.09340468 -15.99609375 11.59765625 C-15.99609375 7.07245574 -15.56765011 6.4704652 -12.62109375 3.28515625 C-8.40688646 -0.78581323 -5.62781527 -1.02245804 0 0 Z " fill="#27ABFE" transform="translate(76.99609375,66.40234375)"/>
<path d="M0 0 C2.0390625 0.5625 2.0390625 0.5625 3.0390625 1.5625 C3.11165196 3.74889453 3.12280033 5.93750389 3.1015625 8.125 C3.09253906 9.32253906 3.08351563 10.52007812 3.07421875 11.75390625 C3.06261719 12.68074219 3.05101563 13.60757813 3.0390625 14.5625 C-0.89773219 15.8747649 -3.67776818 14.78626266 -7.5234375 13.6875 C-8.20857422 13.50058594 -8.89371094 13.31367188 -9.59960938 13.12109375 C-14.62549794 11.73021978 -14.62549794 11.73021978 -16.9609375 10.5625 C-13.24390467 2.50297208 -9.07092737 -1.53465841 0 0 Z " fill="#27ABFE" transform="translate(16.9609375,210.4375)"/>
<path d="M0 0 C1.51395338 0.45601005 3.02053269 0.94216806 4.5 1.5 C4.55386629 3.62472576 4.59273071 5.74983652 4.625 7.875 C4.64820312 9.05835937 4.67140625 10.24171875 4.6953125 11.4609375 C4.5 14.5 4.5 14.5 2.5 16.5 C-3.44 14.85 -9.38 13.2 -15.5 11.5 C-12.1555076 4.81101521 -8.23088903 -1.70697415 0 0 Z " fill="#27ABFF" transform="translate(55.5,100.5)"/>
<path d="M0 0 C3.3 0.66 6.6 1.32 10 2 C10.02693575 4.12493141 10.04636628 6.24995912 10.0625 8.375 C10.07410156 9.55835937 10.08570312 10.74171875 10.09765625 11.9609375 C10 15 10 15 9 17 C6.20612238 16.38379145 3.41519074 15.75750305 0.625 15.125 C-0.56609375 14.86396484 -0.56609375 14.86396484 -1.78125 14.59765625 C-2.92207031 14.33662109 -2.92207031 14.33662109 -4.0859375 14.0703125 C-4.7876709 13.91320801 -5.4894043 13.75610352 -6.21240234 13.59423828 C-8 13 -8 13 -10 11 C-9.36191406 10.37351562 -8.72382812 9.74703125 -8.06640625 9.1015625 C-7.24011719 8.28429687 -6.41382812 7.46703125 -5.5625 6.625 C-4.73878906 5.81289063 -3.91507812 5.00078125 -3.06640625 4.1640625 C-0.96565328 2.17651485 -0.96565328 2.17651485 0 0 Z " fill="#27ABFE" transform="translate(110,56)"/>
<path d="M0 0 C0.33 0 0.66 0 1 0 C1 6.93 1 13.86 1 21 C3.64 21.33 6.28 21.66 9 22 C9.99 22.66 10.98 23.32 12 24 C12.52734375 26.7578125 12.52734375 26.7578125 12 30 C10.22681632 32.23765849 8.64023183 33.98006737 6.5625 35.875 C6.04623047 36.37257813 5.52996094 36.87015625 4.99804688 37.3828125 C1.1970188 41 1.1970188 41 0 41 C0 27.47 0 13.94 0 0 Z " fill="#005CD7" transform="translate(19,225)"/>
<path d="M0 0 C10.875 1.875 10.875 1.875 12 3 C12.49197221 7.31784122 12.50204112 9.31918778 9.8828125 12.87109375 C8.51769531 14.14146484 8.51769531 14.14146484 7.125 15.4375 C6.22007812 16.30246094 5.31515625 17.16742188 4.3828125 18.05859375 C2 20 2 20 0 20 C0 13.4 0 6.8 0 0 Z " fill="#005CD7" transform="translate(219,379)"/>
</svg>
